<svg xmlns="http://www.w3.org/2000/svg" viewBox="0 0 1000 726" class="journey-map-svg" role="img" aria-label="Map tracing the journey from Freetown to Changsha, Bonn, Wageningen and Amsterdam, with fieldwork in Wuppertal" data-proj-k="416.48" data-proj-tx="500" data-proj-ty="461.38" data-proj-rot="-47" data-crop="-32 -36 126 64">
<g id="mapScene">
<path class="map-graticule" d="M0,143L4,131L19,91L37,52L56,14L63,0M103,726L99,709L86,626L78,544L76,461L78,379L86,296L99,213L108,172L118,131L130,91L143,52L158,14L164,0M221,726L219,709L210,626L204,544L203,461L204,379L210,296L219,213L232,131L250,52L265,0M340,726L338,709L333,626L330,544L329,461L330,379L333,296L338,213L346,131L356,52L365,0M459,726L457,626L456,461L457,296L460,131L465,0M577,726L580,626L582,461L580,296L574,131L565,0M696,726L697,709L704,626L708,544L709,461L708,379L704,296L697,213L688,131L676,52L665,0M814,726L817,709L827,626L833,544L835,461L833,379L827,296L817,213L802,131L782,52L766,0M933,726L937,709L945,668L951,626L959,544L962,461L959,379L951,296L945,255L937,213L927,172L916,131L903,91L889,52L873,14L866,0M1000,62L995,52L975,14L967,0M0,608L6,608L22,608L37,608L53,608L68,608L84,608L99,608L115,608L130,608L146,608L162,608L177,608L193,608L208,608L224,608L239,608L255,608L270,608L286,608L301,608L317,608L332,608L348,608L363,608L379,608L394,608L410,608L425,608L441,608L457,608L472,608L488,608L503,608L519,608L534,608L550,608L565,608L581,608L596,608L612,608L627,608L643,608L658,608L674,608L689,608L705,608L720,608L736,608L752,608L767,608L783,608L798,608L814,608L829,608L845,608L860,608L876,608L891,608L907,608L922,608L938,608L953,608L969,608L984,608L1000,608L1000,608M0,461L13,461L28,461L44,461L60,461L76,461L92,461L108,461L123,461L139,461L155,461L171,461L187,461L203,461L218,461L234,461L250,461L266,461L282,461L297,461L313,461L329,461L345,461L361,461L377,461L392,461L408,461L424,461L440,461L456,461L472,461L487,461L503,461L519,461L535,461L551,461L566,461L582,461L598,461L614,461L630,461L646,461L661,461L677,461L693,461L709,461L725,461L741,461L756,461L772,461L788,461L804,461L820,461L835,461L851,461L867,461L883,461L899,461L915,461L930,461L946,461L962,461L978,461L994,461L1000,461M0,315L6,315L22,315L37,315L53,315L68,315L84,315L99,315L115,315L130,315L146,315L162,315L177,315L193,315L208,315L224,315L239,315L255,315L270,315L286,315L301,315L317,315L332,315L348,315L363,315L379,315L394,315L410,315L425,315L441,315L457,315L472,315L488,315L503,315L519,315L534,315L550,315L565,315L581,315L596,315L612,315L627,315L643,315L658,315L674,315L689,315L705,315L720,315L736,315L752,315L767,315L783,315L798,315L814,315L829,315L845,315L860,315L876,315L891,315L907,315L922,315L938,315L953,315L969,315L984,315L1000,315L1000,315M0,167L7,167L21,167L36,167L50,167L65,167L80,167L94,167L109,167L123,167L138,167L153,167L167,167L182,167L196,167L211,167L226,167L240,167L255,167L269,167L284,167L299,167L313,167L328,167L342,167L357,167L372,167L386,167L401,167L415,167L430,167L445,167L459,167L474,167L488,167L503,167L518,167L532,167L547,167L561,167L576,167L590,167L605,167L620,167L634,167L649,167L663,167L678,167L693,167L707,167L722,167L736,167L751,167L766,167L780,167L795,167L809,167L824,167L839,167L853,167L868,167L882,167L897,167L912,167L926,167L941,167L955,167L970,167L985,167L999,167L1000,167M0,26L10,26L23,26L36,26L49,26L62,26L75,26L88,26L101,26L114,26L127,26L140,26L153,26L166,26L179,26L192,26L205,26L218,26L230,26L243,26L256,26L269,26L282,26L295,26L308,26L321,26L334,26L347,26L360,26L373,26L386,26L399,26L412,26L425,26L438,26L451,26L464,26L477,26L490,26L503,26L516,26L529,26L541,26L554,26L567,26L580,26L593,26L606,26L619,26L632,26L645,26L658,26L671,26L684,26L697,26L710,26L723,26L736,26L749,26L762,26L775,26L788,26L801,26L814,26L827,26L839,26L852,26L865,26L878,26L891,26L904,26L917,26L930,26L943,26L956,26L969,26L982,26L995,26L1000,26"/>
<path class="map-land" d="M1000,694L994,694L983,698L975,699L963,705L959,710L949,711L945,710L936,711L924,719L914,719L906,713L907,708L912,705L914,696L912,686L912,678L909,668L909,662L906,655L911,655L912,651L909,641L912,633L912,627L915,622L915,626L920,621L932,613L937,613L959,606L970,594L969,588L975,582L978,590L979,585L978,582L984,581L985,575L992,568L994,569L997,564L1000,563L1000,694ZM944,400L954,386L956,378L958,384L952,389L950,394ZM975,376L979,377L977,382L972,385L972,376ZM980,395L976,392L978,382L982,382L980,389ZM988,378L990,378L993,386L990,387ZM992,370L994,372L995,380L992,380L986,369ZM963,363L968,365L967,372L961,362ZM978,524L971,527L960,526L960,523L964,522L970,524ZM960,530L965,535L963,537L955,530ZM949,522L954,522L955,525L942,528L940,524ZM939,524L937,527L936,523ZM932,521L933,523L930,526L926,521ZM874,474L876,479L878,480L877,484L873,482L872,477L868,476L871,473ZM372,36L374,36L376,37L373,38L371,38L369,40L368,40L370,39L368,38L369,37L368,36L370,36ZM362,200L372,202L376,204L368,205L360,201ZM362,175L362,176L364,177L366,177L366,180L365,179L363,179L363,178L361,176L358,176L361,175ZM425,200L416,207L413,204L416,201ZM353,41L351,42L351,43L352,44L347,47L348,46L347,45L348,43L350,41L352,41L352,40ZM316,55L316,56L316,56L316,56L315,56L314,56L314,57L314,57L314,57L315,58L315,58L314,59L313,59L312,60L312,60L312,61L312,62L311,62L310,61L311,60L310,60L310,60L310,59L309,59L309,59L309,59L308,59L308,58L308,57L308,57L308,56L308,56L308,56L307,56L307,55L308,55L309,55L309,55L309,55L310,54L310,54L310,54L311,54L312,54L311,55L311,55L312,55L312,55L312,55L312,55L313,55L313,54L313,54L313,54L314,53L315,53L315,53L316,53L316,53L316,53L317,53L316,54L316,54ZM305,56L306,56L306,57L306,58L306,58L306,59L306,59L305,60L304,60L303,60L301,59L301,59L301,59L301,58L301,57L302,57L304,56L304,56L304,56L305,56L305,56ZM244,169L245,169L244,172L243,173L241,172L240,171L240,171L239,170L242,169L244,168ZM1000,527L994,529L988,536L983,537L983,532L993,525L1000,524L1000,527ZM1000,411L998,408L995,412L997,418L995,420L988,416L986,411L987,407L983,404L977,405L973,410L974,404L979,402L982,398L984,402L990,399L991,396L995,395L995,390L998,393L998,393L1000,396L1000,411ZM961,325L966,327L969,326L969,332L971,336L970,343L967,345L966,349L969,358L973,356L978,361L979,358L983,367L979,366L973,360L975,364L969,359L966,361L962,360L963,354L960,355L958,353L955,342L959,342L958,332L958,326ZM993,454L990,458L986,459L982,458L965,458L962,463L966,471L972,468L983,466L978,471L970,476L977,485L976,488L980,493L974,497L971,495L972,491L968,487L969,482L963,484L964,489L963,499L964,502L960,503L957,501L959,491L958,487L955,486L954,482L958,476L960,462L964,454L968,452L980,455L986,455L994,449ZM881,505L887,507L890,511L901,512L903,509L914,512L915,517L923,517L926,519L926,526L918,522L914,523L901,521L897,519L888,518L875,515L876,513L869,511L873,505ZM813,423L819,423L824,431L834,438L841,447L842,445L851,456L857,458L859,461L857,463L859,468L863,469L864,475L867,479L871,480L874,484L872,488L872,503L864,505L859,499L851,492L845,485L841,477L837,467L833,461L830,459L826,447L821,444L820,441L816,435L813,433L807,427L805,421ZM941,412L943,410L949,417L956,422L956,424L950,425L953,429L946,432L948,434L944,435L950,444L948,447L956,454L953,455L949,453L946,460L947,467L938,474L940,480L936,488L928,492L927,486L923,487L918,483L915,486L910,487L910,484L900,483L899,472L894,467L894,461L892,459L893,450L896,447L906,451L906,444L910,440L918,438L924,428L929,425L932,425L940,410ZM1000,218L997,221L995,217L1000,214L1000,218ZM957,295L957,301L951,291L951,288L955,278L958,276L960,278L959,291ZM897,315L898,317L895,324L890,328L884,325L884,320L887,315L895,314ZM708,390L712,393L717,400L720,408L719,414L713,418L709,416L706,402L708,395ZM516,552L518,557L522,574L520,578L517,575L517,585L515,589L515,596L506,626L501,643L498,646L488,649L482,645L480,640L480,634L477,623L484,607L484,604L482,595L481,589L484,580L496,577L505,569L507,561L511,559L511,553L514,550ZM283,161L283,163L282,165L282,167L281,172L280,174L278,173L277,174L276,175L275,175L274,173L274,171L275,169L275,168L275,165L274,163L275,161L276,161L278,161L281,158L283,160ZM284,147L284,152L282,153L282,155L281,157L279,156L279,155L278,155L279,153L278,153L279,152L278,150L279,149L282,148L283,148L283,145ZM315,180L313,184L312,186L313,189L312,190L311,192L309,192L308,191L307,190L306,189L304,189L299,185L298,185L296,183L297,182L298,181L299,182L301,181L302,181L304,182L309,182L311,181L312,181L315,180ZM237,36L236,38L232,40L231,41L232,41L230,43L232,42L234,42L236,42L241,42L242,43L241,45L240,46L240,46L239,48L238,48L237,49L236,50L236,50L235,50L234,50L233,50L233,51L232,51L233,51L233,51L235,51L236,51L235,52L235,52L234,52L232,53L232,53L231,53L231,53L230,53L230,53L233,54L233,54L234,53L235,53L238,54L238,55L239,56L239,56L240,56L240,57L240,59L240,60L240,62L240,62L241,63L243,63L243,64L244,64L244,65L245,66L246,66L245,67L245,67L245,68L245,68L245,69L246,70L246,70L245,70L245,70L245,70L244,69L244,69L243,69L242,69L242,69L243,69L244,69L246,71L246,72L246,73L246,74L245,74L245,74L244,75L245,76L246,75L246,75L246,75L247,75L247,74L248,74L249,74L249,75L250,74L251,75L251,75L253,76L253,76L253,77L253,78L252,79L252,79L252,80L251,80L251,81L250,81L250,81L249,81L249,81L249,82L249,82L249,82L249,83L248,83L247,83L246,83L247,83L247,84L247,84L246,84L246,85L245,85L244,85L244,85L245,85L245,85L245,85L245,85L246,86L247,86L248,86L249,86L249,86L249,86L249,87L249,87L247,88L246,88L246,89L245,89L245,89L244,89L243,89L242,90L242,90L240,90L238,90L236,90L236,90L235,90L234,89L234,89L233,89L233,89L232,90L232,90L231,90L230,90L229,90L229,91L229,91L229,91L229,91L227,91L227,91L227,91L226,91L226,91L225,90L224,90L224,90L222,91L221,91L221,92L220,93L219,94L219,94L218,93L217,93L217,93L217,93L217,93L216,93L216,93L215,93L214,93L213,93L212,94L212,94L211,95L210,95L210,95L209,95L208,95L209,94L210,94L211,93L212,92L212,92L213,92L213,92L213,91L215,90L215,89L216,89L216,88L217,88L218,87L218,87L220,87L221,87L223,87L223,87L224,87L225,86L226,85L226,85L227,84L228,84L229,83L228,83L227,84L227,84L225,84L225,85L224,85L223,85L222,85L221,84L220,84L220,84L220,84L219,84L219,84L219,84L220,84L219,83L218,83L218,83L217,83L217,83L216,83L215,84L214,83L214,83L214,83L214,82L213,82L214,82L215,81L216,81L218,80L219,80L220,79L220,79L221,78L221,78L222,77L221,77L221,77L221,77L222,76L222,76L221,75L222,75L222,75L221,75L220,75L220,75L219,75L218,76L218,75L219,75L219,74L220,74L221,74L221,73L221,73L222,73L224,72L224,72L225,72L225,72L226,72L227,72L228,72L228,71L228,71L229,72L229,72L230,72L230,72L229,72L229,72L229,71L228,71L229,70L229,70L230,69L229,69L229,69L229,68L229,68L230,67L230,67L231,66L231,66L230,66L230,66L229,66L229,66L228,66L228,65L227,64L227,63L228,62L230,61L231,61L231,61L229,61L228,61L228,61L227,61L227,61L227,61L226,62L226,62L225,62L225,62L225,62L225,61L224,61L224,61L223,62L223,62L222,62L221,61L221,62L220,61L221,59L223,57L223,55L223,54L225,54L223,53L221,54L222,53L220,53L220,55L218,58L217,58L218,56L219,53L221,50L223,48L220,50L219,50L218,49L220,48L220,47L222,46L222,45L221,44L221,43L222,43L222,42L223,41L225,41L224,39L225,38L227,38L227,36L228,36L229,36L238,35ZM209,60L211,59L213,59L215,59L215,60L216,62L215,62L217,63L217,64L216,63L216,65L215,66L213,67L211,67L212,70L211,72L211,75L209,77L208,79L208,79L206,80L201,80L200,81L198,82L197,82L196,83L193,84L191,85L190,84L188,85L189,83L186,84L189,82L187,83L185,82L188,80L186,80L188,79L189,79L189,78L191,77L196,76L195,76L193,77L191,77L189,77L192,76L193,75L194,73L196,73L193,73L192,71L190,71L190,70L192,70L192,69L194,69L194,68L192,68L193,67L192,65L196,65L197,66L198,65L200,66L200,65L202,64L203,63L201,63L200,62L202,61L203,59L206,59L207,59L206,60L207,60L207,59L209,58L211,59ZM521,117L513,120L512,123L503,127L499,134L502,138L503,145L512,158L513,160L520,165L515,166L513,174L511,176L512,185L518,186L524,191L531,192L541,191L540,176L536,173L538,168L534,168L535,160L539,163L545,161L540,152L535,153L534,159L532,154L532,147L525,144L522,137L519,134L526,134L523,132L525,129L535,129L533,127L535,122L533,117L529,118L524,116ZM1000,31L996,33L990,42L986,47L983,52L974,61L979,63L984,63L986,69L987,66L991,68L989,70L996,68L995,65L1000,65L1000,146L1000,146L997,148L991,146L988,144L985,148L983,148L979,155L981,161L975,167L971,169L971,173L978,178L986,187L990,196L989,203L985,205L981,204L975,209L972,203L974,198L970,192L973,190L969,184L964,182L962,184L957,181L960,177L958,171L952,167L945,170L938,176L935,175L938,172L935,172L938,163L931,161L929,166L924,168L921,174L915,174L914,178L918,181L924,182L925,187L928,189L935,183L940,186L946,186L947,190L943,190L938,192L937,196L931,202L931,206L938,209L943,219L951,228L944,226L950,231L949,239L955,242L955,247L951,254L946,268L946,275L943,275L940,281L929,290L929,293L916,296L916,298L911,294L911,298L904,302L893,305L892,313L888,306L890,304L881,302L877,304L873,308L870,307L869,313L866,315L865,322L876,338L881,342L887,349L891,360L892,369L891,369L890,378L877,387L874,391L864,398L865,391L866,389L861,384L856,384L853,377L844,368L838,368L839,363L833,364L833,372L829,386L830,394L832,393L836,401L837,409L844,411L854,421L857,426L857,440L859,442L863,451L857,450L844,440L840,432L836,414L828,404L823,399L825,388L824,383L825,376L824,365L818,352L817,340L815,340L812,334L810,340L798,345L795,344L797,333L793,323L789,319L792,319L788,314L784,313L779,306L775,293L771,296L769,292L769,298L758,303L752,303L747,306L748,310L744,315L738,318L731,327L720,337L720,340L714,342L713,346L708,346L707,351L709,363L707,374L707,386L704,386L702,393L697,396L696,400L693,402L689,400L685,392L685,389L681,378L677,373L672,355L666,344L659,316L661,311L656,299L655,306L649,309L646,309L636,299L643,296L645,293L640,294L634,291L632,288L625,284L624,280L621,279L619,274L608,277L602,275L589,277L574,275L563,272L561,264L557,262L548,266L541,265L533,259L526,255L524,248L519,240L515,241L512,239L506,241L506,246L511,258L518,264L519,270L523,279L523,275L526,269L528,271L528,278L527,283L530,285L535,284L542,285L558,268L558,278L563,286L571,288L579,298L571,312L569,310L567,318L567,322L560,325L558,330L553,331L550,336L544,337L535,341L533,347L529,349L515,354L510,358L506,358L503,361L492,364L488,367L481,369L478,367L473,347L473,339L467,330L461,316L454,311L451,305L451,294L446,286L442,283L440,276L428,255L425,255L427,245L426,246L422,257L416,252L413,241L411,244L414,252L418,256L420,266L429,286L430,293L437,299L439,306L439,318L441,323L447,329L450,334L452,345L455,351L464,354L471,365L475,367L477,372L473,377L476,377L484,385L493,382L497,383L503,380L512,379L520,377L524,374L527,375L526,383L524,392L515,410L513,416L506,428L494,443L483,451L478,457L468,469L464,475L461,476L457,481L456,485L451,496L448,504L449,508L453,514L451,523L455,534L460,539L458,544L460,554L460,568L460,575L455,582L451,586L439,591L434,599L425,607L424,611L425,614L429,630L427,642L416,647L412,652L414,653L414,660L410,672L405,677L399,689L391,699L385,704L377,709L368,712L360,711L352,712L349,714L342,715L337,717L329,710L325,703L327,701L327,695L323,689L314,672L307,662L304,655L302,645L300,639L298,624L292,615L285,600L280,593L280,577L281,576L284,560L289,553L291,548L291,542L286,528L288,523L281,506L277,495L261,475L258,467L261,464L265,447L265,437L260,431L259,428L250,427L241,430L238,427L237,422L234,417L229,414L221,415L210,417L190,427L177,423L168,424L156,429L145,424L138,417L135,415L120,401L120,394L118,389L113,386L111,381L107,379L107,374L105,375L100,371L99,364L102,364L98,354L103,345L103,340L106,333L107,326L105,319L108,313L104,307L104,301L109,296L113,286L118,281L124,269L130,265L135,256L144,253L151,248L157,240L157,230L162,222L167,217L178,212L186,198L190,198L189,199L190,201L192,202L194,203L198,202L199,202L201,202L203,201L203,203L208,204L210,203L212,201L214,200L218,198L220,198L221,198L222,196L224,195L229,193L236,192L237,192L239,191L243,191L244,190L250,190L253,192L254,192L256,191L259,190L261,189L261,189L263,190L265,190L265,189L267,189L269,190L273,190L274,189L276,188L280,187L281,188L283,188L282,189L283,191L285,190L288,189L288,190L286,193L284,194L283,196L284,198L286,199L286,202L286,202L285,205L282,207L279,210L280,213L292,220L298,220L309,223L310,229L314,232L321,233L330,239L335,237L338,233L337,228L340,223L348,219L356,222L357,225L368,227L369,230L373,229L381,231L391,235L400,230L407,230L410,233L421,232L426,227L432,210L434,207L433,200L435,190L431,193L427,191L421,195L416,197L407,191L403,190L401,195L397,196L394,192L385,188L384,182L378,180L383,179L381,173L378,171L378,168L379,167L382,165L385,164L386,165L388,164L395,164L400,162L396,160L397,158L409,159L415,155L421,153L429,153L437,155L439,158L450,161L456,159L461,160L468,157L470,153L468,148L459,142L453,136L441,130L447,128L449,124L452,123L448,119L457,116L456,115L437,119L431,123L435,129L441,128L440,131L435,130L425,136L423,134L423,130L418,128L424,124L418,123L414,122L415,121L413,120L417,120L418,119L416,120L415,119L415,117L415,119L413,119L408,120L408,121L407,123L405,125L401,126L402,129L400,132L398,133L397,131L396,134L396,135L395,136L395,138L394,142L393,143L392,143L390,144L390,147L389,148L387,149L389,150L390,153L390,154L391,156L392,157L396,158L394,160L391,160L389,160L387,160L385,162L382,164L379,167L379,167L379,165L382,163L378,163L377,161L374,161L373,160L371,161L369,161L367,162L365,162L365,164L367,165L367,165L365,165L364,165L366,167L365,168L364,166L363,166L363,167L364,168L362,168L362,166L360,165L360,163L358,164L358,167L359,169L359,170L361,173L361,173L360,174L360,173L359,172L358,173L359,175L358,175L357,176L361,177L361,178L362,179L363,180L365,180L365,181L365,184L362,182L360,182L359,183L361,186L357,185L357,185L358,189L354,193L351,191L350,189L351,187L350,185L349,185L348,183L349,181L351,181L352,180L356,181L358,182L358,182L359,182L360,181L358,181L356,179L354,180L353,179L350,180L349,179L349,179L348,179L347,177L346,176L346,175L348,176L348,175L346,175L344,172L343,171L342,170L342,167L340,166L339,163L340,161L340,157L341,155L341,154L339,153L338,151L332,147L330,147L329,145L331,147L327,143L324,142L322,142L322,141L319,139L318,136L320,136L319,136L317,133L317,130L315,129L314,129L313,130L312,132L311,132L310,130L310,128L311,127L311,126L310,126L308,126L307,126L304,128L304,127L302,128L302,129L303,131L302,133L302,137L303,138L305,139L307,141L308,141L309,143L310,148L311,149L314,152L316,153L320,153L322,154L321,155L320,156L320,157L323,158L326,160L328,161L331,163L333,165L334,167L333,169L331,168L330,165L328,165L326,164L325,164L323,166L322,168L322,170L324,171L325,172L325,175L325,175L323,176L321,177L321,179L319,180L318,183L316,183L316,181L317,180L318,177L319,177L319,175L319,175L319,172L317,168L315,167L313,166L313,165L312,163L310,163L311,162L309,161L307,158L304,158L303,158L302,157L301,157L298,153L296,152L296,151L294,150L293,150L293,149L291,146L290,146L290,145L289,142L289,139L288,138L287,138L284,136L281,135L280,136L277,139L271,141L268,143L267,144L265,145L263,145L261,144L260,143L259,143L259,142L256,143L254,142L253,141L248,144L247,146L247,149L248,151L247,151L247,153L245,155L241,157L239,158L236,159L233,160L231,161L232,162L230,163L228,165L225,168L223,171L223,174L225,177L224,178L222,179L220,181L218,184L218,185L215,185L213,187L212,188L211,190L209,191L208,191L207,191L205,192L203,191L202,192L199,191L196,192L194,193L192,193L191,194L189,196L188,197L185,195L185,194L185,192L184,191L184,190L182,188L178,188L176,189L174,189L171,189L169,189L171,186L171,184L171,182L172,181L172,179L172,178L170,179L170,177L172,176L172,175L170,177L168,177L170,172L172,171L174,167L174,166L175,163L176,162L177,160L176,154L177,152L178,151L178,148L177,149L178,147L176,146L177,144L179,143L181,143L183,142L183,141L186,140L187,140L188,141L195,141L197,141L198,141L204,143L205,143L209,142L212,143L213,142L216,143L218,143L221,142L222,141L223,138L224,134L225,130L227,127L228,129L228,127L226,126L227,126L227,124L227,122L226,121L224,120L223,118L223,118L223,117L224,116L223,116L223,116L223,116L223,115L223,115L224,115L224,115L225,115L225,115L224,114L222,115L222,115L221,114L221,114L222,114L222,113L222,113L221,113L221,113L220,113L220,113L220,112L220,112L220,112L219,112L219,112L218,112L218,112L218,112L217,112L217,112L214,111L212,111L211,110L210,109L212,108L211,107L213,107L210,107L211,106L212,105L215,104L216,105L217,104L218,104L218,104L220,104L221,104L222,105L222,106L224,105L226,105L226,105L226,105L227,105L227,105L227,105L229,105L230,105L229,105L229,104L229,101L229,100L228,99L228,98L228,98L229,98L229,98L230,98L231,97L232,98L232,98L232,99L232,99L232,100L233,100L234,100L235,100L237,100L238,100L239,100L241,99L241,99L240,99L239,99L239,98L239,98L240,97L243,96L244,96L246,95L247,95L248,94L248,94L249,93L248,93L249,90L250,89L250,89L251,89L251,88L255,88L255,88L258,86L259,86L260,85L261,85L262,86L263,86L264,85L264,86L265,85L264,85L264,85L263,85L262,85L261,85L261,85L261,84L261,84L261,84L262,84L263,84L264,85L265,85L265,85L265,85L265,85L264,84L264,84L265,84L265,84L265,83L264,83L264,82L264,82L265,81L265,81L266,81L267,80L268,79L268,78L269,76L270,75L270,75L270,75L271,75L272,74L273,74L274,73L275,72L277,72L278,71L279,71L281,71L282,71L282,72L283,72L283,72L284,72L284,72L283,72L283,71L284,70L284,70L285,69L287,69L289,69L289,70L289,71L289,71L290,71L290,71L290,70L290,70L291,70L291,71L291,71L291,70L291,70L292,69L292,68L292,68L294,68L295,68L296,69L297,70L298,70L298,70L297,70L296,68L296,68L295,68L294,68L294,67L294,67L294,65L294,65L294,65L293,65L293,65L293,65L293,64L294,64L295,64L295,63L295,63L294,62L294,62L294,60L294,60L294,59L294,59L294,58L294,57L293,57L292,56L293,54L293,54L293,52L293,51L294,49L294,49L294,49L295,50L296,50L296,50L296,50L297,50L297,49L298,48L298,48L299,48L299,48L299,49L300,48L300,47L299,46L299,46L298,47L297,48L296,49L295,49L295,49L294,48L295,48L295,48L296,47L297,46L298,46L299,46L299,46L300,46L301,45L302,45L304,43L305,43L306,42L308,42L308,42L307,42L307,42L307,43L307,44L307,44L307,45L307,45L306,46L306,47L305,48L305,48L305,49L305,50L306,50L308,50L308,50L308,50L308,51L308,51L307,52L306,52L306,52L305,52L305,52L305,52L304,53L303,54L303,54L303,54L303,54L302,54L302,55L302,55L302,55L302,55L301,56L301,56L300,56L300,57L300,57L300,58L300,58L300,59L299,59L298,60L299,60L299,60L300,60L300,61L300,61L300,62L300,62L301,62L301,63L301,63L300,64L300,64L301,64L301,64L302,64L302,64L304,65L306,65L306,65L306,65L306,66L304,67L305,67L305,67L306,67L307,68L308,67L309,66L310,66L312,66L312,66L313,65L313,65L314,64L315,64L316,64L317,64L317,65L319,66L320,66L321,67L321,68L321,69L321,69L323,69L324,69L324,70L324,69L324,69L324,69L324,68L323,68L322,68L322,68L321,68L321,68L321,67L321,67L321,67L321,67L321,66L322,67L323,68L324,68L325,67L329,66L332,65L333,65L334,65L336,63L338,63L340,62L343,62L346,61L348,62L346,62L347,64L349,65L351,65L353,63L354,62L355,61L358,60L361,58L358,60L360,61L361,61L362,57L361,55L362,52L362,48L364,46L365,44L367,43L371,42L372,43L374,44L374,46L376,47L378,47L380,45L381,44L380,41L382,39L382,37L381,37L380,38L378,37L377,36L377,34L377,32L379,31L381,31L382,30L385,30L388,30L388,29L394,29L396,30L401,30L402,29L401,28L402,28L403,28L404,27L406,27L407,26L410,27L412,27L413,27L411,25L407,25L405,24L405,22L405,22L403,23L399,23L398,23L394,24L395,22L394,23L393,24L391,23L392,24L390,25L390,24L387,25L384,26L383,26L379,27L378,26L376,27L375,27L377,26L375,25L375,26L373,26L374,24L372,24L370,23L370,22L369,23L368,22L368,20L369,18L369,16L370,16L369,14L369,13L369,12L369,10L369,9L369,8L372,6L371,5L373,5L375,4L377,2L378,2L381,1L382,0L447,0L447,0L452,1L453,0L1000,0ZM369,0L368,1L365,2L364,3L362,3L361,3L359,5L356,5L355,7L352,8L353,9L350,10L350,10L349,11L350,12L350,12L349,14L349,15L348,15L347,16L347,18L347,22L348,22L349,23L350,22L351,24L353,25L353,25L354,26L354,27L354,28L350,30L349,31L350,31L352,30L352,31L351,31L350,32L346,34L343,35L339,35L339,35L342,36L342,36L341,37L341,38L340,40L340,41L340,43L339,45L339,46L337,49L336,50L335,52L334,53L333,52L328,52L328,53L327,53L327,53L326,53L326,54L325,54L325,55L325,55L325,56L325,57L324,58L324,58L322,57L319,58L317,57L318,57L318,57L318,56L318,56L318,55L318,55L318,54L317,52L316,52L316,51L316,51L317,52L318,52L318,52L318,51L317,51L317,50L318,50L318,50L319,50L319,49L318,49L318,49L317,48L317,47L316,45L315,44L315,44L315,43L315,42L315,42L314,42L314,41L314,40L313,39L313,37L312,37L313,37L313,33L314,32L311,32L311,30L311,28L311,29L310,30L309,31L308,33L306,33L305,33L303,34L303,34L301,36L298,38L297,38L296,39L295,39L294,39L292,40L291,39L290,40L289,39L289,39L289,39L289,39L289,39L289,39L289,39L288,39L288,39L288,39L287,39L288,39L288,38L288,38L288,38L288,38L287,38L287,38L285,37L285,37L284,36L283,36L283,35L283,34L284,33L284,33L285,33L286,34L286,34L287,33L288,33L286,33L286,33L285,33L286,31L288,29L286,31L284,31L283,32L282,32L283,29L284,28L286,29L288,27L286,28L286,27L288,25L289,25L291,24L290,25L292,23L289,24L285,28L282,29L284,26L285,26L286,26L285,25L284,24L284,23L286,22L285,23L284,22L284,19L287,19L289,19L291,19L293,19L295,20L295,19L297,19L297,18L296,18L294,19L293,18L292,19L290,19L286,19L285,18L285,17L287,16L285,15L285,14L288,14L291,14L293,14L294,14L291,14L288,13L286,13L287,12L288,12L289,11L291,10L292,11L294,10L295,10L292,10L293,9L296,9L298,9L299,9L300,9L300,9L303,8L302,8L299,8L298,8L296,8L296,8L297,7L301,6L303,6L304,7L305,8L304,5L304,5L306,4L306,4L305,4L305,3L308,2L309,3L309,4L310,3L312,2L313,4L315,3L317,3L317,2L321,1L320,1L321,0L369,0ZM320,0L319,1L319,1L315,3L313,3L313,2L312,2L312,1L313,1L314,0L320,0ZM182,0L180,1L174,2L169,4L161,3L157,0L150,1L152,0L182,0ZM542,369L547,369L541,371ZM922,513L915,514L916,512L923,512ZM981,392L981,388L985,379L985,384ZM989,390L985,391L986,387ZM982,371L979,374L979,369ZM982,495L979,503L978,502L980,494ZM978,500L976,500L979,495ZM1000,519L997,520L998,518L1000,518L1000,519ZM887,483L883,485L884,480ZM819,451L822,454L821,457L817,451ZM830,474L827,470L828,468ZM374,34L373,34L372,35L371,34L370,33L372,33L373,32L374,33ZM788,377L786,374L788,364L789,370ZM222,66L221,67L221,67L220,67L220,67L220,66L221,66L221,65L222,65L223,64L223,64L223,64L223,65L222,66ZM219,51L217,51L217,50L217,50L218,49L219,50ZM216,54L216,56L215,56L214,55ZM251,23L252,23L250,26L249,27L250,26L248,24L250,24L249,23L250,22ZM222,72L222,72L223,72L222,72L222,73L221,73L221,73L220,73L220,73L220,72L220,71L221,71L221,71ZM227,12L226,12L226,12L226,13L225,12L224,11L225,11ZM221,37L220,38L218,39L219,40L216,41L215,41L217,40L216,40L216,38L218,38L218,38L221,36ZM219,43L219,44L221,45L220,46L219,45L218,45L218,44L216,44L217,43L219,42ZM360,24L362,25L360,26L359,26L359,25ZM338,51L337,51L337,50L339,47L339,47L342,44L342,44L340,48ZM329,60L328,60L328,60L327,60L327,59L327,58L329,59L329,60ZM320,65L320,65L320,65L320,65L319,65L319,65L318,66L318,65L317,65L317,64L318,64L318,63L318,63L318,63L319,62L319,62L319,63L320,63L320,63L320,63L320,64L320,64L320,64L320,64ZM308,61L309,61L310,61L310,62L310,62L310,63L310,63L309,63L309,63L306,62L307,61L307,61L308,61ZM60,0L59,2L48,9L38,21L34,23L33,26L27,27L22,25L20,22L23,18L16,21L10,21L8,18L8,12L5,10L6,8L4,2L6,0L60,0Z"/>
<path class="map-arc" id="mapArc0" pathLength="1" d="M120,399L159,367L199,336L241,307L285,279L330,253L378,230L427,211L478,196L531,186L585,181L639,181L694,186L748,197L801,212L852,231L902,254"/>
<path class="map-arc" id="mapArc1" pathLength="1" d="M902,254L876,226L848,200L818,174L787,150L753,127L717,106L678,88L637,73L594,61L549,53L503,49L456,49L409,54L364,62L321,75L280,90"/>
<path class="map-arc" id="mapArc2" pathLength="1" d="M280,90L274,81"/>
<path class="map-arc" id="mapArc3" pathLength="1" d="M274,81L270,79"/>
<g class="map-site" id="mapSite0" data-activate="3">
<path class="map-site-mark" data-x="280.7" data-y="86.4" d="M 0 -3.4 L 3.4 0 L 0 3.4 L -3.4 0 Z" transform="translate(280.7 86.4)"/>
<text class="map-site-label" x="268.7" y="90.4" data-cx="280.7" data-cy="86.4" data-dx="-12" data-dy="4" text-anchor="end">Wuppertal · fieldwork</text>
</g>
<g class="map-stop" id="mapStop0" data-stop="freetown">
<circle class="map-stop-halo" cx="120.1" cy="399.4" r="10"/>
<circle class="map-stop-dot" cx="120.1" cy="399.4" r="3.2"/>
<text class="map-stop-label" x="120.1" y="425.4" data-cx="120.1" data-cy="399.4" data-dx="0" data-dy="26" text-anchor="middle">Freetown</text>
</g>
<g class="map-stop" id="mapStop1" data-stop="changsha">
<circle class="map-stop-halo" cx="901.6" cy="254.1" r="10"/>
<circle class="map-stop-dot" cx="901.6" cy="254.1" r="3.2"/>
<text class="map-stop-label" x="917.6" y="259.1" data-cx="901.6" data-cy="254.1" data-dx="16" data-dy="5" text-anchor="start">Changsha</text>
</g>
<g class="map-stop" id="mapStop2" data-stop="bonn">
<circle class="map-stop-halo" cx="279.7" cy="90.1" r="10"/>
<circle class="map-stop-dot" cx="279.7" cy="90.1" r="3.2"/>
<text class="map-stop-label" x="293.7" y="104.1" data-cx="279.7" data-cy="90.1" data-dx="14" data-dy="14" text-anchor="start">Bonn</text>
</g>
<g class="map-stop" id="mapStop3" data-stop="wageningen">
<circle class="map-stop-halo" cx="273.5" cy="81.4" r="10"/>
<circle class="map-stop-dot" cx="273.5" cy="81.4" r="3.2"/>
<text class="map-stop-label" x="289.5" y="81.4" data-cx="273.5" data-cy="81.4" data-dx="16" data-dy="0" text-anchor="start">Wageningen</text>
</g>
<g class="map-stop map-stop-current" id="mapStop4" data-stop="amsterdam">
<circle class="map-stop-halo" cx="269.9" cy="78.6" r="10"/>
<circle class="map-stop-ring" cx="269.9" cy="78.6" r="6.5"/>
<circle class="map-stop-dot" cx="269.9" cy="78.6" r="3.2"/>
<text class="map-stop-label" x="256.9" y="70.6" data-cx="269.9" data-cy="78.6" data-dx="-13" data-dy="-8" text-anchor="end">Amsterdam</text>
</g>
</g>
</svg>
