<svg xmlns="http://www.w3.org/2000/svg" viewBox="0 0 1000 500" class="journey-map-svg" role="img" aria-label="World map tracing the journey from Freetown to Changsha, Bonn, Wageningen and Amsterdam">
<g id="mapScene">
<path class="map-sphere" d="M235.4,0L500,0L764.6,0L787.0,2.3L804.3,6.4L818.3,11.7L830.3,17.8L851.2,31.3L870.2,45.9L904.6,77.1L919.7,93.6L933.1,110.6L944.7,127.9L954.6,145.3L962.8,162.8L969.4,180.3L974.4,197.8L978.0,215.2L980.8,250L978.0,284.8L974.4,302.2L969.4,319.7L962.8,337.2L954.6,354.7L944.7,372.1L933.1,389.4L919.7,406.4L904.6,422.9L870.2,454.1L851.2,468.7L830.3,482.2L818.3,488.3L804.3,493.6L787.0,497.7L764.6,500L500,500L235.4,500L213.0,497.7L195.7,493.6L181.7,488.3L169.7,482.2L148.8,468.7L129.8,454.1L95.4,422.9L80.3,406.4L66.9,389.4L55.3,372.1L45.4,354.7L37.2,337.2L30.6,319.7L25.6,302.2L22.0,284.8L19.2,250L22.0,215.2L25.6,197.8L30.6,180.3L37.2,162.8L45.4,145.3L55.3,127.9L66.9,110.6L80.3,93.6L95.4,77.1L129.8,45.9L148.8,31.3L169.7,17.8L181.7,11.7L195.7,6.4L213.0,2.3L235.4,0Z"/>
<path class="map-graticule" d="M235.4,500L213.0,497.7L195.7,493.6L181.7,488.3L169.7,482.2L148.8,468.7L129.8,454.1L95.4,422.9L80.3,406.4L66.9,389.4L55.3,372.1L45.4,354.7L37.2,337.2L30.6,319.7L25.6,302.2L22.0,284.8L19.2,250L22.0,215.2L25.6,197.8L30.6,180.3L37.2,162.8L45.4,145.3L55.3,127.9L66.9,110.6L80.3,93.6L95.4,77.1L129.8,45.9L148.8,31.3L169.7,17.8L181.7,11.7L195.7,6.4L213.0,2.3L235.4,0M279.5,500L260.8,497.7L246.4,493.6L234.8,488.3L224.7,482.2L207.3,468.7L191.5,454.1L162.8,422.9L139.1,389.4L121.2,354.7L108.9,319.7L101.7,284.8L99.4,250L101.7,215.2L108.9,180.3L121.2,145.3L139.1,110.6L162.8,77.1L191.5,45.9L207.3,31.3L224.7,17.8L234.8,11.7L246.4,6.4L260.8,2.3L279.5,0M323.6,500L308.7,497.7L297.1,493.6L279.8,482.2L265.8,468.7L253.2,454.1L230.3,422.9L211.3,389.4L196.9,354.7L187.1,319.7L181.4,284.8L179.5,250L181.4,215.2L187.1,180.3L196.9,145.3L211.3,110.6L230.3,77.1L253.2,45.9L265.8,31.3L279.8,17.8L297.1,6.4L308.7,2.3L323.6,0M367.7,500L356.5,497.7L347.9,493.6L334.8,482.2L314.9,454.1L297.7,422.9L283.5,389.4L272.7,354.7L265.3,319.7L261.0,284.8L259.6,250L261.0,215.2L265.3,180.3L272.7,145.3L283.5,110.6L297.7,77.1L314.9,45.9L334.8,17.8L347.9,6.4L356.5,2.3L367.7,0M411.8,500L404.3,497.7L398.6,493.6L389.9,482.2L376.6,454.1L365.1,422.9L355.6,389.4L348.5,354.7L343.5,319.7L340.7,284.8L339.7,250L340.7,215.2L343.5,180.3L348.5,145.3L355.6,110.6L365.1,77.1L376.6,45.9L389.9,17.8L398.6,6.4L404.3,2.3L411.8,0M455.9,500L452.2,497.7L449.3,493.6L444.9,482.2L438.3,454.1L427.8,389.4L421.8,319.7L419.9,250L421.8,180.3L427.8,110.6L438.3,45.9L444.9,17.8L449.3,6.4L452.2,2.3L455.9,0M500,500L500,454.1L500,389.4L500,319.7L500,250L500,180.3L500,110.6L500,45.9L500,0M544.1,500L547.8,497.7L550.7,493.6L555.1,482.2L561.7,454.1L572.2,389.4L578.2,319.7L580.1,250L578.2,180.3L572.2,110.6L561.7,45.9L555.1,17.8L550.7,6.4L547.8,2.3L544.1,0M588.2,500L595.7,497.7L601.4,493.6L610.1,482.2L623.4,454.1L634.9,422.9L644.4,389.4L651.5,354.7L656.5,319.7L659.3,284.8L660.3,250L659.3,215.2L656.5,180.3L651.5,145.3L644.4,110.6L634.9,77.1L623.4,45.9L610.1,17.8L601.4,6.4L595.7,2.3L588.2,0M632.3,500L643.5,497.7L652.1,493.6L665.2,482.2L685.1,454.1L702.3,422.9L716.5,389.4L727.3,354.7L734.7,319.7L739.0,284.8L740.4,250L739.0,215.2L734.7,180.3L727.3,145.3L716.5,110.6L702.3,77.1L685.1,45.9L665.2,17.8L652.1,6.4L643.5,2.3L632.3,0M676.4,500L691.3,497.7L702.9,493.6L720.2,482.2L734.2,468.7L746.8,454.1L769.7,422.9L788.7,389.4L803.1,354.7L812.9,319.7L818.6,284.8L820.5,250L818.6,215.2L812.9,180.3L803.1,145.3L788.7,110.6L769.7,77.1L746.8,45.9L734.2,31.3L720.2,17.8L702.9,6.4L691.3,2.3L676.4,0M720.5,500L739.2,497.7L753.6,493.6L765.2,488.3L775.3,482.2L792.7,468.7L808.5,454.1L837.2,422.9L860.9,389.4L878.8,354.7L891.1,319.7L898.3,284.8L900.6,250L898.3,215.2L891.1,180.3L878.8,145.3L860.9,110.6L837.2,77.1L808.5,45.9L792.7,31.3L775.3,17.8L765.2,11.7L753.6,6.4L739.2,2.3L720.5,0M106.3,433.6L111.8,433.6L117.2,433.6L122.7,433.6L128.2,433.6L133.6,433.6L139.1,433.6L144.6,433.6L150.0,433.6L155.5,433.6L161.0,433.6L166.4,433.6L171.9,433.6L177.4,433.6L182.8,433.6L188.3,433.6L193.8,433.6L199.3,433.6L204.7,433.6L210.2,433.6L215.7,433.6L221.1,433.6L226.6,433.6L232.1,433.6L237.5,433.6L243.0,433.6L248.5,433.6L253.9,433.6L259.4,433.6L264.9,433.6L270.3,433.6L275.8,433.6L281.3,433.6L286.7,433.6L292.2,433.6L297.7,433.6L303.1,433.6L308.6,433.6L314.1,433.6L319.6,433.6L325.0,433.6L330.5,433.6L336.0,433.6L341.4,433.6L346.9,433.6L352.4,433.6L357.8,433.6L363.3,433.6L368.8,433.6L374.2,433.6L379.7,433.6L385.2,433.6L390.6,433.6L396.1,433.6L401.6,433.6L407.0,433.6L412.5,433.6L418.0,433.6L423.4,433.6L428.9,433.6L434.4,433.6L439.9,433.6L445.3,433.6L450.8,433.6L456.3,433.6L461.7,433.6L467.2,433.6L472.7,433.6L478.1,433.6L483.6,433.6L489.1,433.6L494.5,433.6L500,433.6L505.5,433.6L510.9,433.6L516.4,433.6L521.9,433.6L527.3,433.6L532.8,433.6L538.3,433.6L543.7,433.6L549.2,433.6L554.7,433.6L560.1,433.6L565.6,433.6L571.1,433.6L576.6,433.6L582.0,433.6L587.5,433.6L593.0,433.6L598.4,433.6L603.9,433.6L609.4,433.6L614.8,433.6L620.3,433.6L625.8,433.6L631.2,433.6L636.7,433.6L642.2,433.6L647.6,433.6L653.1,433.6L658.6,433.6L664.0,433.6L669.5,433.6L675.0,433.6L680.5,433.6L685.9,433.6L691.4,433.6L696.9,433.6L702.3,433.6L707.8,433.6L713.3,433.6L718.7,433.6L724.2,433.6L729.7,433.6L735.1,433.6L740.6,433.6L746.1,433.6L751.5,433.6L757.0,433.6L762.5,433.6L767.9,433.6L773.4,433.6L778.9,433.6L784.3,433.6L789.8,433.6L795.3,433.6L800.7,433.6L806.2,433.6L811.7,433.6L817.2,433.6L822.6,433.6L828.1,433.6L833.6,433.6L839.0,433.6L844.5,433.6L850.0,433.6L855.4,433.6L860.9,433.6L866.4,433.6L871.8,433.6L877.3,433.6L882.8,433.6L888.2,433.6L893.7,433.6M39.8,343.0L46.2,343.0L52.6,343.0L59.0,343.0L65.3,343.0L71.7,343.0L78.1,343.0L84.5,343.0L90.9,343.0L97.3,343.0L103.7,343.0L110.1,343.0L116.5,343.0L122.9,343.0L129.3,343.0L135.7,343.0L142.0,343.0L148.4,343.0L154.8,343.0L161.2,343.0L167.6,343.0L174.0,343.0L180.4,343.0L186.8,343.0L193.2,343.0L199.6,343.0L206.0,343.0L212.4,343.0L218.8,343.0L225.1,343.0L231.5,343.0L237.9,343.0L244.3,343.0L250.7,343.0L257.1,343.0L263.5,343.0L269.9,343.0L276.3,343.0L282.7,343.0L289.1,343.0L295.5,343.0L301.8,343.0L308.2,343.0L314.6,343.0L321.0,343.0L327.4,343.0L333.8,343.0L340.2,343.0L346.6,343.0L353.0,343.0L359.4,343.0L365.8,343.0L372.2,343.0L378.6,343.0L384.9,343.0L391.3,343.0L397.7,343.0L404.1,343.0L410.5,343.0L416.9,343.0L423.3,343.0L429.7,343.0L436.1,343.0L442.5,343.0L448.9,343.0L455.3,343.0L461.6,343.0L468.0,343.0L474.4,343.0L480.8,343.0L487.2,343.0L493.6,343.0L500,343.0L506.4,343.0L512.8,343.0L519.2,343.0L525.6,343.0L532.0,343.0L538.4,343.0L544.7,343.0L551.1,343.0L557.5,343.0L563.9,343.0L570.3,343.0L576.7,343.0L583.1,343.0L589.5,343.0L595.9,343.0L602.3,343.0L608.7,343.0L615.1,343.0L621.4,343.0L627.8,343.0L634.2,343.0L640.6,343.0L647.0,343.0L653.4,343.0L659.8,343.0L666.2,343.0L672.6,343.0L679.0,343.0L685.4,343.0L691.8,343.0L698.2,343.0L704.5,343.0L710.9,343.0L717.3,343.0L723.7,343.0L730.1,343.0L736.5,343.0L742.9,343.0L749.3,343.0L755.7,343.0L762.1,343.0L768.5,343.0L774.9,343.0L781.2,343.0L787.6,343.0L794.0,343.0L800.4,343.0L806.8,343.0L813.2,343.0L819.6,343.0L826.0,343.0L832.4,343.0L838.8,343.0L845.2,343.0L851.6,343.0L858.0,343.0L864.3,343.0L870.7,343.0L877.1,343.0L883.5,343.0L889.9,343.0L896.3,343.0L902.7,343.0L909.1,343.0L915.5,343.0L921.9,343.0L928.3,343.0L934.7,343.0L941.0,343.0L947.4,343.0L953.8,343.0L960.2,343.0M19.2,250L25.9,250L32.6,250L39.3,250L45.9,250L52.6,250L59.3,250L66.0,250L72.6,250L79.3,250L86.0,250L92.7,250L99.4,250L106.0,250L112.7,250L119.4,250L126.1,250L132.7,250L139.4,250L146.1,250L152.8,250L159.5,250L166.1,250L172.8,250L179.5,250L186.2,250L192.8,250L199.5,250L206.2,250L212.9,250L219.5,250L226.2,250L232.9,250L239.6,250L246.3,250L252.9,250L259.6,250L266.3,250L273.0,250L279.6,250L286.3,250L293.0,250L299.7,250L306.4,250L313.0,250L319.7,250L326.4,250L333.1,250L339.7,250L346.4,250L353.1,250L359.8,250L366.5,250L373.1,250L379.8,250L386.5,250L393.2,250L399.8,250L406.5,250L413.2,250L419.9,250L426.5,250L433.2,250L439.9,250L446.6,250L453.3,250L459.9,250L466.6,250L473.3,250L480.0,250L486.6,250L493.3,250L500,250L506.7,250L513.4,250L520.0,250L526.7,250L533.4,250L540.1,250L546.7,250L553.4,250L560.1,250L566.8,250L573.5,250L580.1,250L586.8,250L593.5,250L600.2,250L606.8,250L613.5,250L620.2,250L626.9,250L633.5,250L640.2,250L646.9,250L653.6,250L660.3,250L666.9,250L673.6,250L680.3,250L687.0,250L693.6,250L700.3,250L707.0,250L713.7,250L720.4,250L727.0,250L733.7,250L740.4,250L747.1,250L753.7,250L760.4,250L767.1,250L773.8,250L780.5,250L787.1,250L793.8,250L800.5,250L807.2,250L813.8,250L820.5,250L827.2,250L833.9,250L840.5,250L847.2,250L853.9,250L860.6,250L867.3,250L873.9,250L880.6,250L887.3,250L894.0,250L900.6,250L907.3,250L914.0,250L920.7,250L927.4,250L934.0,250L940.7,250L947.4,250L954.1,250L960.7,250L967.4,250L974.1,250L980.8,250M39.8,157.0L46.2,157.0L52.6,157.0L59.0,157.0L65.3,157.0L71.7,157.0L78.1,157.0L84.5,157.0L90.9,157.0L97.3,157.0L103.7,157.0L110.1,157.0L116.5,157.0L122.9,157.0L129.3,157.0L135.7,157.0L142.0,157.0L148.4,157.0L154.8,157.0L161.2,157.0L167.6,157.0L174.0,157.0L180.4,157.0L186.8,157.0L193.2,157.0L199.6,157.0L206.0,157.0L212.4,157.0L218.8,157.0L225.1,157.0L231.5,157.0L237.9,157.0L244.3,157.0L250.7,157.0L257.1,157.0L263.5,157.0L269.9,157.0L276.3,157.0L282.7,157.0L289.1,157.0L295.5,157.0L301.8,157.0L308.2,157.0L314.6,157.0L321.0,157.0L327.4,157.0L333.8,157.0L340.2,157.0L346.6,157.0L353.0,157.0L359.4,157.0L365.8,157.0L372.2,157.0L378.6,157.0L384.9,157.0L391.3,157.0L397.7,157.0L404.1,157.0L410.5,157.0L416.9,157.0L423.3,157.0L429.7,157.0L436.1,157.0L442.5,157.0L448.9,157.0L455.3,157.0L461.6,157.0L468.0,157.0L474.4,157.0L480.8,157.0L487.2,157.0L493.6,157.0L500,157.0L506.4,157.0L512.8,157.0L519.2,157.0L525.6,157.0L532.0,157.0L538.4,157.0L544.7,157.0L551.1,157.0L557.5,157.0L563.9,157.0L570.3,157.0L576.7,157.0L583.1,157.0L589.5,157.0L595.9,157.0L602.3,157.0L608.7,157.0L615.1,157.0L621.4,157.0L627.8,157.0L634.2,157.0L640.6,157.0L647.0,157.0L653.4,157.0L659.8,157.0L666.2,157.0L672.6,157.0L679.0,157.0L685.4,157.0L691.8,157.0L698.2,157.0L704.5,157.0L710.9,157.0L717.3,157.0L723.7,157.0L730.1,157.0L736.5,157.0L742.9,157.0L749.3,157.0L755.7,157.0L762.1,157.0L768.5,157.0L774.9,157.0L781.2,157.0L787.6,157.0L794.0,157.0L800.4,157.0L806.8,157.0L813.2,157.0L819.6,157.0L826.0,157.0L832.4,157.0L838.8,157.0L845.2,157.0L851.6,157.0L858.0,157.0L864.3,157.0L870.7,157.0L877.1,157.0L883.5,157.0L889.9,157.0L896.3,157.0L902.7,157.0L909.1,157.0L915.5,157.0L921.9,157.0L928.3,157.0L934.7,157.0L941.0,157.0L947.4,157.0L953.8,157.0L960.2,157.0M106.3,66.4L111.8,66.4L117.2,66.4L122.7,66.4L128.2,66.4L133.6,66.4L139.1,66.4L144.6,66.4L150.0,66.4L155.5,66.4L161.0,66.4L166.4,66.4L171.9,66.4L177.4,66.4L182.8,66.4L188.3,66.4L193.8,66.4L199.3,66.4L204.7,66.4L210.2,66.4L215.7,66.4L221.1,66.4L226.6,66.4L232.1,66.4L237.5,66.4L243.0,66.4L248.5,66.4L253.9,66.4L259.4,66.4L264.9,66.4L270.3,66.4L275.8,66.4L281.3,66.4L286.7,66.4L292.2,66.4L297.7,66.4L303.1,66.4L308.6,66.4L314.1,66.4L319.6,66.4L325.0,66.4L330.5,66.4L336.0,66.4L341.4,66.4L346.9,66.4L352.4,66.4L357.8,66.4L363.3,66.4L368.8,66.4L374.2,66.4L379.7,66.4L385.2,66.4L390.6,66.4L396.1,66.4L401.6,66.4L407.0,66.4L412.5,66.4L418.0,66.4L423.4,66.4L428.9,66.4L434.4,66.4L439.9,66.4L445.3,66.4L450.8,66.4L456.3,66.4L461.7,66.4L467.2,66.4L472.7,66.4L478.1,66.4L483.6,66.4L489.1,66.4L494.5,66.4L500,66.4L505.5,66.4L510.9,66.4L516.4,66.4L521.9,66.4L527.3,66.4L532.8,66.4L538.3,66.4L543.7,66.4L549.2,66.4L554.7,66.4L560.1,66.4L565.6,66.4L571.1,66.4L576.6,66.4L582.0,66.4L587.5,66.4L593.0,66.4L598.4,66.4L603.9,66.4L609.4,66.4L614.8,66.4L620.3,66.4L625.8,66.4L631.2,66.4L636.7,66.4L642.2,66.4L647.6,66.4L653.1,66.4L658.6,66.4L664.0,66.4L669.5,66.4L675.0,66.4L680.5,66.4L685.9,66.4L691.4,66.4L696.9,66.4L702.3,66.4L707.8,66.4L713.3,66.4L718.7,66.4L724.2,66.4L729.7,66.4L735.1,66.4L740.6,66.4L746.1,66.4L751.5,66.4L757.0,66.4L762.5,66.4L767.9,66.4L773.4,66.4L778.9,66.4L784.3,66.4L789.8,66.4L795.3,66.4L800.7,66.4L806.2,66.4L811.7,66.4L817.2,66.4L822.6,66.4L828.1,66.4L833.6,66.4L839.0,66.4L844.5,66.4L850.0,66.4L855.4,66.4L860.9,66.4L866.4,66.4L871.8,66.4L877.3,66.4L882.8,66.4L888.2,66.4L893.7,66.4"/>
<path class="map-land" d="M392.4,485.1L392.6,486.2L392.8,487.1L388.8,486.8L384.9,487.0L382.2,486.3L382.1,486.2L380.7,485.6L384.8,485.6L388.8,485.8L389.5,485.0L390.0,484.2ZM210.5,483.9L207.6,484.2L203.9,483.4L201.5,482.6L201.2,482.5L199.0,481.9L198.8,481.0L202.8,481.4L205.7,482.1L208.4,482.9ZM416.4,480.6L419.1,481.6L420.5,483.0L421.2,483.9L421.8,485.1L419.3,485.7L416.6,486.3L413.6,486.8L410.1,487.2L405.8,487.1L403.0,486.4L402.8,485.5L406.3,484.9L407.4,484.2L408.1,483.2L408.5,482.4L409.2,481.6L409.9,480.6L410.9,480.6L413.4,480.1ZM264.4,469.7L267.2,470.0L269.2,469.6L268.9,470.5L267.7,471.1L264.8,470.9L262,470.0L261.6,469.2ZM255.9,469.6L259.8,470.6L258.6,470.5L255.8,470.2L252.5,469.6L253.3,469.0ZM304.6,465.7L307.0,466.0L308.9,465.8L311.2,467.2L309.5,467.0L307.2,467.1L304.7,467.0L302.1,467.1L299.7,466.6L297.9,465.6L298.8,465.1L301.6,465.5ZM363.6,463.2L364.4,464.4L364.6,465.4L364.5,466.3L362.4,466.6L360.4,467.1L357.9,467.1L358.3,466.1L356.1,466.5L354.1,466.8L352.2,466.1L351.5,465.0L353.1,464.0L354.3,463.7L356.7,463.8L356.6,462.5L356.2,461.5L355.1,459.4L355.6,458.2L357.3,457.8L358.8,458.8L359.8,459.7L361.2,460.9L362.5,462.0ZM197.6,494.2L197.6,494.2L197.6,494.2L197.7,494.2L196.0,493.2L200.8,493.7L200.8,493.7L200.8,493.5L200.8,493.4L200.9,493.2L200.9,493.1L201.1,493.1L201.4,493.2L206.1,493.9L206.0,493.2L206.1,493.1L210.2,492.8L213.0,493.2L214.4,493.4L218.7,493.9L224.7,494.4L230.1,494.9L237.8,495.2L241.2,494.8L249.2,495.1L254.8,495.6L257.7,495.1L261.1,494.7L259.3,493.9L252.5,493.9L246.0,493.5L242.8,492.8L237.2,492.4L235.6,491.6L234.5,490.8L233.6,490.1L231.6,489.3L227.6,488.7L224.8,488.0L220.9,487.3L225.4,487.5L228.9,487.1L232.8,487.8L234.8,487.2L236.4,486.4L236.7,485.7L234.6,484.8L231.3,484.2L227.7,483.6L223.7,483.5L219.9,483.1L216.1,482.9L213.6,482.1L210.1,481.4L207.4,480.6L203.0,477.9L204.3,478.1L207.0,478.9L209.7,478.6L212.2,478.3L215.2,479.3L217.8,479.1L219.6,478.6L221.1,478.0L222.2,477.2L224.7,476.9L223.5,476.0L221.8,475.1L221.3,474.3L223.2,473.9L225.3,474.7L227.6,474.2L229.1,473.6L231.8,473.5L234.1,473.3L236.0,472.7L237.5,472.2L239.3,471.6L240.9,471.8L242.5,472.0L245.0,471.6L248.0,472.1L250.6,472.0L252.8,471.7L255.6,471.9L258.7,472.2L261.3,472.1L264.2,472.1L267.1,472.2L269.6,472.1L270.9,471.4L272.9,471.0L275.8,471.5L277.7,471.1L279.0,470.2L280.9,471.0L282.4,471.8L284.4,472.7L285.7,471.9L288.8,472.9L291.7,473.1L294.5,473.8L297.1,473.7L299.1,473.2L302.1,473.3L305.0,473.7L308.0,474.1L308.1,473.0L306.2,472.2L304.5,471.4L301.9,471.2L300.0,470.2L298.8,469.3L296.7,467.4L298.4,467.8L301.1,467.9L303.5,467.8L306.1,468.2L308.7,468.9L310.2,469.8L312.9,469.9L315.2,469.6L317.5,469.1L319.7,468.8L322.1,469.4L324.6,469.2L324.9,467.3L327.3,468.4L329.8,468.9L332.1,468.6L334.4,469.6L337.0,469.7L339.5,470.0L342.2,470.5L343.1,469.6L343.3,468.7L345.9,469.7L348.4,469.5L350.7,470.0L352.5,470.8L355.0,470.6L356.7,470.0L358.3,469.4L360.4,469.1L363.0,468.8L365.3,468.4L367.0,467.9L367.7,467.1L367.6,466.0L366.8,464.9L365.7,463.9L364.5,462.9L363.4,461.9L362.4,461.0L361.8,460.0L361.5,459.0L362.0,458.0L362.3,456.9L362.1,455.9L361.2,454.7L360.5,453.7L360.9,452.5L361.7,451.7L362.6,450.7L363.7,449.9L365.0,449.1L365.3,447.9L366.2,447.2L367.2,446.5L369.2,446.3L370.1,445.4L371.4,444.9L373.0,444.6L374.3,443.9L375.2,443.0L376.8,442.7L378.3,443.4L377.8,444.3L375.9,445.1L375.3,445.7L373.5,445.3L371.9,445.6L370.7,446.2L369.4,446.9L368.7,447.7L368.9,448.7L369.4,449.8L370.8,450.6L369.6,451.3L367.7,451.5L367.0,452.4L366.1,453.2L365.4,454.4L365.5,455.4L366.7,456.4L368.1,457.3L370.1,457.9L372.0,458.7L373.3,459.7L374.2,460.7L375.2,461.7L376.5,462.6L377.6,463.5L378.9,465.9L379.9,466.8L380.5,467.8L381.6,468.8L382.0,470.1L381.4,471.2L380.7,472.0L378.3,472.3L377.9,473.2L377.2,474.0L374.8,474.9L372.5,475.3L370.4,475.8L368.1,476.3L367.2,477.3L364.3,477.4L360.9,477.3L358.0,477.5L354.9,477.5L356.1,478.4L359.2,478.8L361.7,479.5L363.5,480.3L361.9,481.0L358.6,480.8L356.4,481.4L357.0,482.3L357.6,483.2L360.3,483.9L361.4,484.8L364.3,485.6L368.4,485.9L372.1,486.5L375.2,487.1L379.0,487.8L383.7,488.1L388.4,488.7L391.9,489.3L395.7,489.9L398.2,490.8L399.6,491.5L401.2,490.9L403.6,490.3L406.1,489.7L409.4,489.2L412.2,488.6L416.6,488.6L421.1,488.9L424.9,489.3L425.5,488.5L427.7,487.9L432.2,487.8L435.5,487.4L438.6,486.9L442.2,486.6L446.1,486.3L448.7,485.7L447.1,485.0L446.1,484.2L445.9,483.4L442.4,483.5L438.7,483.8L435.2,483.8L434.4,483.0L434.0,481.3L434.7,480.8L437.2,480.3L440.1,479.7L442.2,479.0L444.3,478.3L445.7,477.4L448.2,477.0L450.7,476.7L451.9,476.5L454.8,476.4L457.5,476.0L459.8,475.6L462.0,475.0L464.0,474.4L466.5,473.7L468.1,472.9L469.8,472.1L470.2,471.2L468.1,470.6L468.7,469.6L469.9,468.8L471.8,468.3L473.9,467.7L475.8,466.9L477.3,465.9L478.2,464.7L479.5,464.0L481.9,464.1L482.9,465.0L485.3,465.1L485.3,464.1L486.3,463.1L488.5,463.4L489.0,464.3L491.4,464.5L493.9,464.0L496.4,463.7L498.7,463.9L499.5,464.9L501.7,464.1L503.8,463.6L506.0,463.3L508.3,462.9L510.3,462.3L512.6,461.9L514.3,461.4L515.6,460.4L517.0,461.1L519.1,460.8L520.5,462.0L521.6,462.9L523.9,462.4L524.9,461.4L527.0,460.6L529.6,460.8L530.3,461.8L532.1,460.8L534.3,460.5L536.6,460.4L538.8,460.4L541.0,460.8L543.1,460.9L543.9,461.8L545.1,462.5L547.4,462.1L549.7,462.0L552.0,462.0L554.2,461.9L556.3,461.6L558.5,461.3L560.4,460.5L562.4,460.1L564.5,459.8L566.2,459.1L567.7,457.7L569.0,456.8L571.1,457.2L571.6,458.1L573.2,458.8L575.4,458.6L576.6,459.5L577.9,460.1L580.1,459.5L581.1,458.4L583.1,457.9L585.5,457.1L587.6,456.7L590.1,456.2L591.9,455.6L593.8,455.0L595.6,454.4L597.4,454.7L599.5,453.8L601.1,453.1L603.0,453.1L605.0,452.5L605.7,451.5L607.7,450.8L609.6,450.3L611.8,449.9L613.8,449.6L615.6,449.8L617.5,450.1L618.9,450.8L618.6,452.0L620.1,452.9L621.0,453.6L623.4,453.9L624.5,454.6L625.8,455.4L627.7,455.5L629.6,455.0L631.9,453.9L633.5,454.5L635.4,454.8L637.2,455.1L639.1,455.3L641.1,455.3L641.5,458.0L641.1,458.7L640.3,459.9L638.0,460.5L636.0,461.5L635.7,462.5L638.0,462.5L637.2,463.5L635.7,464.4L634.3,465.5L635.4,466.3L637.5,466.5L640.0,466.1L641.6,465.1L642.8,464.1L644.3,463.3L646.0,462.6L647.0,461.7L648.7,460.4L650.1,460.1L652.4,460.0L654.6,459.7L656.9,459.3L658.5,458.3L659.6,457.3L661.5,456.3L663.9,455.7L665.9,455.1L667.5,454.3L669.0,453.8L670.7,453.4L672.6,453.6L674.6,453.4L676.8,453.1L679.0,453.2L680.9,452.5L683.0,450.7L683.3,451.4L683.6,452.7L685.0,453.2L686.8,453.4L689.0,453.1L691.0,453.3L692.9,453.4L694.4,453.1L696.0,453.3L697.2,453.8L699.3,453.5L701.5,453.5L703.7,453.1L705.6,453.5L707.5,452.6L709.2,451.7L711.1,451.0L715.1,449.0L716.2,449.3L717.3,450.1L718.0,451.0L719.5,452.6L721.5,452.7L723.4,452.7L725.8,452.4L728.3,452.0L730.6,451.3L732.6,450.5L735.0,450.4L737.0,449.8L738.2,450.3L738.6,451.2L739.4,452.0L741.8,451.9L742.7,452.6L744.6,453.3L747.0,453.5L749.3,453.3L751.6,452.5L753.7,451.6L755.7,451.4L757.3,451.8L759.2,452.1L761.5,451.6L763.4,451.6L765.0,451.9L766.6,452.2L768.9,451.7L771.5,451.3L773.7,451.2L776.1,451.2L778.2,450.9L780.3,450.7L782.0,449.4L783.1,448.3L783.8,449.0L783.1,450.2L782.7,451.3L782.8,452.2L784.1,452.7L786.6,452.5L789.3,452.5L791.4,452.3L794.1,452.3L796.1,452.3L798.7,452.4L800.8,452.6L801.4,453.4L800.0,454.4L800.6,455.2L802.1,455.8L803.7,456.5L805.9,457.0L808.2,457.4L809.8,457.8L812.1,457.8L814.3,457.0L815.4,457.7L816.0,458.5L817.1,459.1L819.3,459.4L821.3,459.7L821.1,460.7L822.7,461.3L823.1,462.2L824.9,462.6L827.3,462.6L829.2,462.7L831.7,462.7L833.8,462.9L835.6,463.2L836.9,463.8L838.3,464.3L838.8,465.1L837.3,466.1L835.1,467.0L832.7,468.1L830.9,469.0L828.6,470.0L825.5,470.4L823.2,471.3L820.0,471.8L817.8,472.8L815.3,473.7L812.9,474.5L810.7,475.5L809.0,476.4L807.2,477.4L806.0,478.3L805.7,479.2L804.8,480.1L804.4,480.9L807.3,481.2L806.4,482.2L802.6,482.6L799.0,483.1L795.3,483.1L791.7,484.4L789.6,485.4L787.4,486.2L785.0,487.0L786.1,487.7L785.3,488.6L785.2,489.3L785.9,490.0L787.0,490.6L788.2,491.2L790.6,491.8L789.1,492.7L793.0,493.0L792.9,493.2L792.6,493.7L798.6,493.2L800.8,493.8L802.4,494.2L785.8,497.9L764.6,500L500,500L235.4,500L214.2,497.9ZM345.2,415.9L348.8,417.7L352.2,418.4L351.7,419.8L349.6,420.0L348.1,419.0L347.8,420.1L346.1,421.0L343.6,420.7L341.6,419.8L339.1,419.4L335.6,417.8L332.7,416.2L328.3,412.9L330.4,413.5L334.4,415.5L337.8,416.6L338.5,415.2L338.5,413.2L340.2,412.0L342.0,412.3L343.3,413.7ZM363.9,407.8L366.1,409.1L365.7,410.2L362.8,411.0L361.5,410.0L359.9,411.3L358.4,410.0L360.6,408.2L362.8,409.0ZM664.8,403.6L661.1,403.8L661.5,402.2L662.3,401.0L662.6,400.4L663.9,401.3L666.0,401.7L665.9,402.3ZM857.0,376.5L858.8,377.5L860.4,377.1L862.6,376.5L863.9,376.7L862.1,380.4L860.7,381.4L859.1,383.9L858.7,383.1L855.8,385.2L855.4,385.1L854.0,385.0L853.9,382.3L854.7,380.3L854.7,377.6L855.5,376.2ZM924.6,376.9L924.3,378.1L926.8,376.9L926.7,378.2L925.9,379.5L924.1,380.9L921.0,383.2L918.9,384.4L918.8,385.9L917.0,385.9L914.1,387.1L912.1,389.1L908.6,392.2L905.7,393.5L903.9,394.4L901.8,394.3L900.9,393.3L898.5,393.1L898.8,392.0L901.7,389.7L906.7,386.7L908.7,386.1L911.2,385.0L914.3,383.4L916.8,381.8L919.4,379.5L920.8,378.7L922.2,377.0L924.8,375.6ZM937.1,362.1L937.1,365.4L938.3,363.3L939.0,364.1L938.0,366.5L939.4,367.5L941.0,367.7L943.1,366.6L944.1,366.9L941.9,369.7L940.1,371.5L938.2,371.4L937.0,372.3L936.4,373.7L935.7,374.2L933.7,375.9L931.2,378.0L928.5,379.2L928.6,378.4L927.8,378.0L930.9,375.5L931.1,373.8L929.2,372.5L929.9,371.4L932.4,370.3L934.2,367.9L935.2,365.9L935.3,363.9L935.7,363.3L935.2,362.0L934.7,359.3L934.8,357.1L935.8,356.8L936.3,358.6L937.8,359.4ZM936.1,318.6L934.9,319.4L933.7,318.5L932.2,317.1L931.0,315.5L929.9,313.3L929.8,312.2L930.9,312.3L932.1,313.3L933.0,314.4L933.6,315.3L935.2,317.2ZM969.7,303.6L970.4,304.5L969.6,306.2L967.8,306.6L966.5,306.2L966.6,304.8L967.9,303.8L969.0,304.2ZM974.6,301.2L972.8,302.0L970.9,302.6L970.9,301.5L972.3,300.8L973.2,300.7L975.0,299.7L974.6,301.2ZM25.0,299.7L25.0,299.7L25.5,299.6L25.5,301.0L25.4,301.2L25.4,301.2L25.4,301.2L25.0,299.7ZM942.6,300.9L941.7,301.3L941.1,300.0L941.4,299.2ZM941.7,296.2L941.6,298.7L941.0,298.3L940.4,298.5L940.2,297.6L940.6,295.2ZM632.6,291.9L632.8,295.6L633.4,297.1L633.0,298.6L632.5,299.5L631.7,297.7L631.1,298.6L631.5,300.9L631.2,302.2L630.4,302.9L630.1,305.5L628.8,309.2L627.1,313.4L625.0,319.3L623.6,323.7L622.1,327.3L619.9,328.0L617.5,329.3L616.1,328.5L614.2,327.4L613.6,325.8L613.7,323.0L613.0,320.5L612.9,318.3L613.5,316.1L614.8,315.5L614.9,314.5L616.3,312.1L616.7,310.1L616.2,308.7L615.8,306.7L615.8,303.9L616.8,302.1L617.3,300.2L618.6,300.0L620.1,299.4L621.1,298.9L622.3,298.8L623.9,297.0L626.2,295.1L627.0,293.6L626.7,292.3L627.8,292.6L629.4,290.5L629.6,288.6L630.5,287.2L631.4,288.6L632.0,289.9ZM880.1,292.6L880.6,295.0L882.5,293.8L883.2,295.1L884.2,296.3L883.7,297.7L883.8,300.4L883.9,301.9L884.5,302.3L884.6,305.0L884.0,306.6L884.4,308.7L886.9,310.3L888.4,311.8L889.8,313.1L889.3,313.9L890.3,315.8L890.4,319.2L891.6,318.5L892.3,319.8L893.1,319.4L892.6,322.7L893.9,324.6L894.8,325.8L896.0,328.3L895.9,330.8L895.4,332.6L894.5,334.5L894.8,337.1L893.7,339.9L892.7,341.3L890.9,344.1L890.3,345.9L888.9,348.1L886.6,350.9L884.1,352.5L882.1,354.9L880.6,356.4L878.7,359.1L877.0,360.6L875.3,363.0L873.9,365.1L873.6,366.1L871.6,367.2L868.8,367.3L865.9,368.5L864.2,369.7L862.0,371.1L860.6,369.7L859.4,369.1L860.5,367.5L858.9,368.1L855.7,370.4L853.9,369.5L852.7,369.0L851.4,368.8L849.4,367.9L848.7,366.0L849.3,363.7L849.4,362.1L848.7,360.8L846.5,360.5L847.9,358.9L848.2,356.6L846.1,358.8L843.7,359.4L845.7,357.6L846.8,355.9L848.4,354.3L849.1,352.0L846.0,354.7L844.0,355.7L842.0,358.2L840.6,356.9L841.3,355.3L840.6,353.0L839.7,351.9L840.4,351.1L837.9,349.3L836.1,349.2L834.2,347.7L829.5,348.0L825.9,349.1L822.6,350.1L820.3,349.9L817.0,351.5L814.6,352.2L813.5,353.8L812.1,355.1L810.0,355.2L808.3,355.5L806.3,354.9L804.3,355.2L802.5,355.4L800.5,357.0L799.8,356.9L798.2,357.8L796.7,358.8L794.9,358.6L793.2,358.6L791.2,356.6L790.0,356.1L790.7,354.3L792.1,353.9L792.7,353.1L793.0,352.0L794.0,349.9L794.3,348.0L793.9,344.9L794.0,343.1L794.6,341.3L794.2,339.3L794.3,338.4L793.5,337.1L793.9,334.7L793.0,332.2L793.0,330.9L793.8,332.3L793.6,329.4L794.7,330.3L795.2,331.5L795.5,329.9L794.8,327.4L794.8,326.5L794.4,325.5L795.1,323.7L795.8,323.0L796.5,321.4L796.6,319.6L798.1,317.4L797.8,319.7L799.4,317.6L801.7,316.5L803.3,315.2L805.5,314.1L806.7,313.8L807.4,314.2L809.7,313.1L811.3,312.7L811.8,312.0L812.6,311.8L814.0,311.8L817.0,310.9L818.6,309.5L819.6,307.9L821.5,306.3L821.8,305.1L822.2,303.4L824.4,300.8L825.1,303.4L826.3,302.8L825.6,301.3L826.7,299.8L827.8,300.5L828.5,298.2L830.1,296.6L831.0,295.4L832.4,294.9L832.5,294.0L833.7,294.4L833.8,293.6L835.0,293.1L836.4,292.7L838.1,294.2L839.3,296.0L841.0,296.0L842.6,296.3L842.3,294.6L843.9,292.1L845.3,291.3L844.9,290.5L846.3,288.8L848.1,287.7L849.4,288.0L851.7,287.5L851.8,285.9L850.0,284.9L851.5,284.4L853.2,285.2L854.4,286.4L856.5,287.2L857.3,286.9L858.9,287.9L860.5,287.0L861.5,287.3L862.2,286.7L863.2,288.2L862.3,289.8L861.1,291.1L860.2,291.2L860.3,292.4L859.3,294.0L858.1,295.5L858.1,296.4L859.9,298.1L861.8,299.1L863.0,300.2L864.5,302.0L865.3,302.0L866.5,302.8L866.7,303.7L869.0,304.8L871.0,303.7L871.8,302.1L872.6,300.7L873.3,299.0L874.5,296.5L874.4,295.0L874.7,294.1L874.7,292.4L875.4,290.0L876.0,289.4L875.7,288.4L876.6,286.7L877.3,285.0L877.5,284.1L878.6,283.0L879.2,284.5L879.1,286.4L879.7,286.8L879.7,288.1L880.4,289.7L880.3,291.4ZM930.8,282.4L931.4,283.5L929.6,283.4L928.8,281.5L930.3,282.3ZM820.9,281.7L819.7,281.7L816.4,279.5L819.0,278.9L820.3,279.9L821.1,280.8ZM927.7,280.5L926.6,280.6L925.1,280.3L924.6,279.8L924.9,278.6L926.6,279.1L927.4,279.7ZM930.0,279.7L929.5,280.2L927.9,277.6L927.5,275.7L928.4,275.7L929.1,278.2ZM830.8,281.3L828.4,282.0L828.2,281.7L828.5,280.6L829.8,278.7L832.6,277.5L832.9,276.8L835.3,276.1L837.2,276.0L838.0,275.6L839.0,276.0L837.9,276.8L835.1,278.1L832.7,279.0ZM814.0,275.0L814.8,275.8L816.5,275.6L817.1,276.9L813.9,277.5L812.1,277.9L810.6,277.9L811.7,276.1L813.2,276.1ZM827.3,275.0L826.7,276.7L822.7,277.6L819.2,277.2L819.3,276.1L821.4,275.5L823.0,276.4L824.8,276.1ZM925.6,275.8L925.7,276.4L923.7,275.1L922.4,274.0L921.5,272.9L921.9,272.6L923.1,273.4L925.1,274.8ZM919.7,272.7L919.2,272.9L918.1,272.2L917.1,270.9L917.3,270.4L918.8,271.7ZM789.5,270.9L794.6,271.3L795.3,270.0L800.1,271.5L801.0,273.5L804.9,274.0L808.0,275.9L804.9,277.1L802.1,275.8L799.7,275.9L796.9,275.7L794.5,275.1L791.5,273.9L789.5,273.6L788.4,274.0L783.6,272.7L783.2,271.4L780.8,271.2L782.8,268.2L786.0,268.4L788.1,269.6L789.2,269.8ZM859.2,269.2L857.7,271.3L857.6,269.0L858.1,267.9L858.7,266.8L859.3,267.7ZM915.5,271.1L914.7,271.4L913.6,270.2L912.6,268.2L912.2,265.9L912.6,265.6L912.8,266.5L913.6,267.2L914.7,269.2L915.9,270.2ZM905.4,266.9L904.0,267.2L903.5,268.0L902.0,268.8L900.5,269.5L899.1,269.5L897.0,268.6L895.6,267.8L895.8,266.8L898.2,267.3L899.7,267.0L900.2,265.5L900.6,265.5L900.7,267.1L902.2,266.9L903.1,265.8L904.6,264.7L904.4,262.9L906.0,262.8L906.5,263.3L906.4,265.0ZM839.7,260.7L838.7,261.7L836.8,261.1L836.4,259.8L839.1,259.7ZM848.3,259.6L849.2,261.9L847.0,260.6L844.8,260.4L843.3,260.6L841.4,260.5L842.1,258.8L845.4,258.7ZM908.6,263.9L907.8,264.7L907.4,262.9L906.8,261.7L905.6,260.7L904.2,259.4L902.3,258.5L903.0,257.7L904.5,258.6L905.3,259.3L906.4,260.0L907.4,261.3L908.4,262.3ZM858.3,253.6L858.9,258.6L861.6,260.4L863.9,257.1L867.0,255.3L869.4,255.3L871.7,256.3L873.6,257.4L876.5,258.0L881.1,260.2L885.9,261.9L887.7,263.5L889.1,265.1L889.4,266.9L893.7,268.8L894.2,270.4L891.7,270.8L892.2,272.8L894.3,274.9L895.7,278.1L897.3,278.0L897.0,279.4L899.0,279.9L898.1,280.5L900.8,281.8L900.4,282.7L898.6,282.9L898.1,282.1L895.8,281.8L893.2,281.3L891.4,279.3L890.0,277.6L888.9,274.9L885.6,273.6L883.2,274.5L881.5,275.5L881.6,277.8L879.4,278.8L878.0,278.3L875.2,278.2L873.1,275.6L870.5,275.0L869.7,275.9L866.4,276.0L867.7,273.5L869.5,272.6L869.0,269.3L867.9,266.7L862.9,264.1L860.7,263.8L856.8,260.9L856.0,262.4L854.9,262.7L854.4,261.6L854.4,260.2L852.4,258.7L855.3,257.6L857.2,257.7L857.0,256.8L853.1,256.8L852.1,255.0L849.7,254.4L848.6,252.9L852.2,252.1L853.6,251.1L857.9,252.4ZM834.5,245.6L832.4,248.7L830.4,249.3L827.8,248.7L823.3,248.8L821,249.3L820.6,251.6L823.0,254.4L824.4,253.0L829.4,251.9L829.2,253.3L828.0,252.9L826.9,254.7L824.5,255.9L826.9,259.8L826.4,260.9L828.6,264.5L828.5,266.5L827.1,267.4L826.1,266.3L827.5,263.8L824.8,265.0L824.2,264.1L824.6,262.9L822.7,261.1L823.0,258.1L821.2,259.1L821.3,262.7L821.2,267.1L819.5,267.5L818.4,266.6L819.3,263.8L819.0,260.8L817.9,260.8L817.1,258.7L818.3,256.6L818.7,254.2L820.0,249.5L820.6,248.3L822.9,246.0L825.0,246.9L828.3,247.3L831.4,247.2L834.0,244.9ZM843.7,246.5L843.6,249.2L842.2,248.9L841.8,250.8L842.9,252.4L842.1,252.8L841.1,250.8L840.3,246.9L840.8,244.4L841.6,243.3L841.9,245.0L843.4,245.2ZM782.2,268.1L779.2,268.1L777.1,265.6L773.8,263.0L772.7,261.2L770.7,258.7L769.5,256.3L767.5,252.0L765.1,249.4L764.3,246.8L763.3,244.4L760.9,242.4L759.4,239.8L757.4,238.0L754.5,234.6L754.2,233.1L755.9,233.2L760.0,233.8L762.5,236.8L764.6,238.9L766.2,240.2L768.8,243.5L771.5,243.6L773.7,245.7L775.3,248.3L777.3,249.7L776.3,252.2L777.8,253.3L778.8,253.3L779.2,255.5L780.1,257.2L782.0,257.5L783.3,259.5L782.5,263.3ZM814.8,244.4L817.8,247.2L814.7,247.6L813.8,249.7L813.9,252.5L811.3,254.6L811.2,257.7L810,262.4L809.6,261.3L806.6,262.7L805.6,260.8L803.7,260.6L802.4,259.6L799.2,260.7L798.2,259.3L796.5,259.4L794.3,259.1L794.0,254.9L792.6,254.1L791.4,251.4L791.0,248.7L791.3,245.9L792.8,243.8L794.8,244.9L796.9,244.3L797.4,241.7L798.5,241.1L801.7,240.4L803.5,238.0L804.8,236.0L805.8,234.9L807.9,233.2L809.9,231.0L811.1,228.6L812.2,228.6L813.6,230.2L813.8,231.5L815.6,232.4L817.9,233.3L817.8,234.5L816.0,234.7L816.5,236.2L814.6,237.2L813.2,240.0L815.2,242.9ZM836.4,224.0L836.9,226.0L837.2,227.8L836.5,230.6L835.3,227.5L834.1,229.0L835.1,231.3L834.5,232.8L831.2,231.0L830.3,228.7L831.0,227.3L829.2,225.8L828.5,227.1L827.2,227.0L825.4,228.7L824.9,227.8L825.7,225.2L827.3,224.3L828.7,223.1L829.7,224.5L831.7,223.7L832.0,222.3L833.9,222.2L833.5,219.8L835.8,221.3L836.2,222.9ZM716.5,230.8L714.3,231.6L712.9,229.1L712.2,224.7L713.1,219.6L715.1,221.3L716.4,223.5L717.9,226.8L717.6,230.0ZM338.0,218.7L335.8,219.1L335.3,218.8L336.1,218.0L336.1,216.7L337.7,216.3L338.2,216.4ZM829.5,218.2L828.7,219.2L828.0,221.2L827.3,222.1L825.4,220.0L825.9,219.1L826.5,218.3L826.6,216.4L828.0,216.2L827.8,218.3L829.5,215.3ZM815.2,221.2L812.0,224.1L813.1,222.0L814.8,220.1L816.2,217.9L817.3,214.8L818.0,217.4L816.5,219.1ZM823.4,213.2L825.1,214.2L826.8,214.2L826.9,215.5L825.8,216.8L824.2,217.7L824.0,216.3L824.0,214.7ZM832.9,212.4L834.1,215.9L831.9,215.0L832.1,216.1L832.9,218.0L831.8,218.7L831.4,216.5L830.6,216.3L830.0,214.5L831.6,214.7L831.4,213.5L829.5,211.2L832.0,211.2ZM822.0,209.6L821.6,212.3L820.3,210.7L818.7,208.4L821.0,208.5ZM818.9,192.7L820.6,193.6L821.3,192.8L821.7,193.6L821.5,194.9L822.8,197.1L822.5,199.7L821.1,200.7L821.1,203.2L822.0,205.7L823.5,206.0L824.6,205.7L828.1,207.4L828.1,209.1L829.1,209.8L829.0,211.2L826.7,209.7L825.5,208.1L825.0,209.2L823.1,207.4L820.7,207.8L819.3,207.1L819.3,205.9L820.0,205.1L819.1,204.4L818.9,205.5L817.4,203.7L816.8,202.3L816.2,199.4L817.4,200.4L816.9,195.5L817.3,192.7ZM327.5,193.6L326.8,194.4L324.8,194.4L323.2,194.5L323.2,193.1L323.6,192.7L325.8,192.7L327.1,193.0ZM297.7,194.7L296.8,195.2L295.4,194.7L294.0,193.6L294.4,192.9L295.5,192.7L296.1,192.8L297.9,193.1L299.2,193.8L299.5,194.7ZM309.7,188.5L311.9,189.0L312.3,188.5L314.4,188.5L315.8,189.3L316.5,189.2L316.9,190.3L318.3,190.2L318.1,191.2L319.3,191.3L320.5,192.4L319.4,193.7L318.2,193.0L317.0,193.1L316.1,193.0L315.6,193.5L314.6,193.7L314.2,193.0L313.3,193.4L312.0,195.6L311.4,195.1L311.4,194.2L309.7,193.6L308.4,193.9L306.8,193.6L305.6,194.2L304.2,193.2L304.6,192.2L307.0,192.7L308.9,192.9L309.9,192.2L308.9,190.9L309.0,189.7L307.4,189.2L308.1,188.4ZM789.9,192.2L787.9,193.7L785.6,192.7L785.0,190.1L786.1,188.7L788.8,187.8L790.3,187.9L791.1,189.0L790.2,190.4ZM91.6,190.9L91.1,191.5L90.6,191.0L90.9,190.2L90.7,189.0L90.9,188.7L91.5,188.2L91.5,187.6L91.7,187.3L91.9,187.3L92.8,187.8L93.2,188.1L93.5,188.5L93.9,189.6L93.8,189.8L92.6,190.5ZM91.4,186.1L90.5,186.3L90.2,185.7L90.0,185.4L90.0,185.2L90.3,185.0L91.2,185.2L91.8,185.7ZM90.1,184.4L89.9,184.8L88.5,184.7L88.8,184.3ZM87.9,184.0L87.7,184.2L87.5,184.1L86.6,184.0L86.5,183.3L86.4,183.2L87.3,182.8L87.4,183.0ZM84.0,181.9L83.6,182.2L82.9,181.7L83.1,181.5L83.6,181.2L84.2,181.2ZM292.4,179.5L293.2,180.6L295.7,180.3L296.5,181.0L298.5,182.9L299.9,184.3L300.8,184.3L302.3,184.9L302.0,185.8L303.9,185.9L305.7,187.2L305.3,187.9L303.5,188.3L301.7,188.5L299.9,188.2L296.1,188.5L298.1,186.8L297.2,186.0L295.5,185.8L294.7,184.9L294.3,183.1L292.8,183.3L290.5,182.4L289.8,181.8L286.5,181.3L285.7,180.7L286.8,179.9L284.2,179.7L282.1,181.4L281.0,181.4L280.6,182.2L279.2,182.5L278.1,182.2L279.7,181.2L280.4,180.1L281.7,179.4L283.1,178.8L285.1,178.5L285.8,178.2L288.0,178.4L290.1,178.4ZM298.4,176.4L297.7,176.6L297.4,174.8L296.5,173.9L297.4,171.9L298.2,172.0L298.7,174.6ZM815.8,179.4L815.2,182.0L813.3,179.4L812.4,177.0L813.2,174.0L814.7,171.6L816.1,172.6L816.2,174.4ZM299.1,167.6L296.2,168.1L296.2,167.0L297.4,166.7L299.1,166.8ZM301.2,167.6L300.4,169.8L300.0,169.4L300.3,167.8L299.3,166.6L299.4,166.2ZM839.5,144.1L840.3,145.2L839.6,147.0L838.2,146.0L837.1,146.8L837.1,148.6L835.2,147.7L834.6,146.2L835.3,144.4L836.9,144.7L837.4,143.4ZM586.7,139.4L585.1,140.7L585.4,141.3L585.5,141.5L583.0,142.8L581.8,142.4L581.1,141.1L582.3,141.0L582.4,141.0L582.7,140.2L584.5,140.3ZM559.4,139.3L560.9,140.3L562.8,140.1L564.7,140.3L564.7,140.9L566.0,140.5L565.8,141.4L562.2,141.7L562.2,141.2L559.1,140.6ZM538.5,131.4L537.8,133.9L538.2,134.8L537.7,136.4L535.8,135.3L534.5,134.9L530.9,133.3L531.2,131.7L534.1,132.0L536.7,131.7ZM522.6,122.2L524.1,124.4L523.9,128.5L522.8,128.3L521.8,129.3L520.8,128.5L520.6,124.8L520.0,123.0L521.4,123.2ZM851.5,134.8L851.7,137.3L852.8,138.8L852.4,141.0L849.8,142.5L845.5,142.7L843.3,146.2L841.1,145.0L840.1,142.7L836.0,143.4L833.6,144.9L830.6,144.9L834.1,147.2L834.3,152.5L833.1,153.8L831.4,152.6L831.1,149.8L829.1,148.9L827.3,146.7L829.4,145.8L830.0,143.8L831.9,142.2L832.9,140.1L837.5,139.2L840.4,139.8L840.7,134.3L843.0,135.8L845.3,132.7L846.2,131.5L845.9,127.7L843.8,124.2L843.9,122.3L846.2,121.7L849.7,126.0L850.8,128.5L850.0,131.6ZM523.3,119.3L522.6,121.7L521.5,121.1L520.8,119.0L521.3,117.9L522.8,116.7ZM847.7,113.1L849.8,113.8L850.7,112.5L853.2,115.9L850.1,116.8L849.6,119.8L844.7,117.7L845.1,121.1L842.4,121.1L840.5,118.1L840.4,115.7L842.9,115.5L841.3,111.3L840.6,108.9L845.3,112.1ZM348.1,105.9L349.7,106.3L351.9,106.2L350.4,107.5L349.5,107.7L346.8,106.4L346.5,105.4L347.6,104.4ZM354.6,98.2L353.4,98.2L350.7,97.3L348.9,95.9L349.8,95.6L352.6,96.4L354.7,97.6ZM208.4,100.0L207.0,100.4L203.9,99.0L203.8,98.0L202.3,96.9L202.4,96.1L200.3,95.5L200.4,93.9L201.0,93.2L203.0,93.9L204.2,94.3L206.2,94.6L206.4,95.7L206.7,97.1L208.4,98.3ZM369.2,93.5L366.9,96.1L368.7,95.1L370.1,95.7L369.0,96.7L370.9,97.6L372.2,96.8L374.3,97.8L373.0,100.0L374.8,99.4L374.7,101.0L375.0,102.9L373.4,105.6L372.3,105.7L370.9,105.1L372.0,102.6L371.4,102.3L368.0,104.9L366.6,104.8L368.7,103.4L366.6,102.6L364.0,102.8L359.4,102.7L359.2,101.8L361.0,100.8L360.2,99.9L362.6,98.1L366.3,93.4L368.2,91.7L370.5,90.6L371.6,90.8L370.9,91.6ZM197.2,83.5L199.5,83.3L196.6,86.6L197.1,89.0L196.1,89.0L195.6,87.7L195.7,86.3L195.1,85.4L195.6,84.1L196.4,83.2ZM834.7,93.3L840.6,98.6L836.4,97.6L837.8,101.9L842.0,105.0L843.2,107.2L840.3,105.3L840.1,107.7L838.2,105.1L836.6,102.2L834.3,98.9L833.4,96.7L830.9,92.7L827.5,89.7L824.9,85.7L826.0,84.4L824.1,83.0L824.8,82.6L826.8,84.5L829.7,87.4L831.7,90.3ZM484.3,88.8L480.2,90.5L476.9,90.1L478.9,87.0L477.9,84.0L481.1,81.7L482.8,80.4L484.8,80.2L487.1,82.0L485.8,84.0L486.2,86.1ZM528.6,79.0L527.4,81.3L525.0,79.7L524.6,78.5L527.8,77.5ZM158.2,74.6L155.0,75.7L154.5,75.0L155.3,73.6L158.2,72.6L159.8,72.2L161.1,72.4L161.2,73.3ZM493.4,70.3L490.9,73.4L493.2,73.0L495.6,73.0L495.0,75.3L493.0,77.9L495.3,78.1L497.5,81.8L499.0,82.3L500.4,85.6L501.1,86.8L503.9,87.4L503.6,89.3L502.4,90.1L503.4,91.7L501.3,93.2L498.2,93.2L494.2,94.0L493.1,93.4L491.5,94.8L489.4,94.5L487.7,95.6L486.5,95.0L490.0,91.9L492.1,91.3L488.4,90.8L487.8,89.6L490.3,88.7L489.0,87.1L489.5,85.1L492.9,85.4L493.3,83.7L491.7,81.9L489.0,81.3L488.5,80.6L489.3,79.3L488.6,78.5L487.4,79.8L487.3,77.0L486.2,75.6L487.1,72.6L488.9,70.3L490.7,70.5ZM137.6,66.7L135.8,67.1L134.9,66.6L134.3,65.8L137.0,65.3L138.4,65.6ZM329.5,60.4L328.0,61.8L327.1,61.6L327.0,60.8L327.1,60.6L328.4,59.7L329.2,59.8ZM324.6,58.8L321.3,60.4L319.8,60.3L319.8,59.6L322.0,58.3L324.9,58.3ZM135.4,55.9L136.2,56.4L137.8,56.1L138.7,56.9L140.5,57.2L140.0,57.5L137.7,58.1L136.8,57.5L136.5,57.0L134.4,57.2L134.2,56.9ZM322.0,50.8L321.7,52.0L323.1,51.6L323.9,52.3L325.7,53.2L327.6,54.1L327.2,55.4L328.8,55.1L329.9,56.0L327.5,56.9L324.6,56.3L324.0,55.0L321.2,56.5L317.4,57.9L317.5,56.3L314.5,56.6L317.1,55.2L318.5,53.1L320.6,50.6ZM469.9,48.6L469.2,50.4L471.4,52.2L468.5,54.3L462.2,56.2L460.3,56.7L457.6,56.3L451.8,55.4L454.0,54.2L449.6,52.9L453.4,52.3L453.4,51.5L449.1,50.9L450.8,49.2L454.0,48.8L457.0,50.6L460.4,49.1L462.9,49.9L466.5,48.5ZM343.5,46.8L341.1,46.9L341.3,45.6L342.9,44.1L345.0,43.8L346.2,44.5L345.6,45.6L345.2,46.0ZM620.3,122.0L621.9,124.2L623.1,124.3L624.0,125.2L622.0,125.4L622.0,127.8L621.8,128.9L621.0,129.6L621.3,131.2L622.5,133.4L624.9,134.1L626.9,135.6L630.5,136.2L634.3,135.4L634.4,134.6L633.6,132.4L633.4,129.2L631.2,128.2L631.5,126.0L629.8,125.9L629.9,123.3L632.3,124.0L634.3,123.0L632.1,121.2L631.1,119.4L629.3,120.2L629.5,122.5L628.3,120.5L628.0,119.7L628.4,118.4L627.7,117.4L624.7,116.3L623.0,113.6L621.6,112.8L621.3,111.8L623.7,112.1L623.3,109.9L625.2,109.4L627.4,109.8L627.2,106.9L626.4,105.0L624.0,105.1L621.8,104.4L619.4,105.7L617.3,106.4L616.5,108.2L614.3,108.7L612.5,111.8L615.3,114.7L615.4,116.8L618.7,120.4ZM878.3,52.6L878.3,52.6L877.0,53.8L874.1,53.6L877.6,55.1L881.5,57.3L883.3,58.1L884.8,59.2L885.1,60.0L880.4,59.4L876.6,61.5L875.1,61.8L873.8,63.7L872.4,65.5L872.9,66.7L867.8,64.8L864.3,67.0L862.3,66.0L861.4,67.2L858.1,66.8L859.1,68.6L859.0,71.4L860.2,72.5L863.3,73.2L866.8,77.4L864.8,77.5L865.9,79.9L867.9,81.2L865.2,82.7L867.1,86.0L864.3,86.7L865.9,89.7L864.7,92.5L862.3,90.4L858.0,86.1L851.5,79.6L849.2,75.6L849.6,73.9L848.5,72.6L851.4,71.9L852.1,68.3L853.1,65.4L854.9,63.2L852.7,59.3L850.3,59.5L851.3,61.8L848.8,64.9L843.7,61.4L839.0,62.4L837.9,67.1L841.3,68.8L837.0,69.6L833.9,69.9L832.3,67.8L828.5,67.4L827.0,68.8L819.8,68.3L813.3,69.1L810.5,74.7L806.9,81.5L810.8,81.9L813.2,83.7L815.9,84.4L816.3,82.9L818.9,83.1L824.5,86.3L826.4,88.8L826.6,91.8L828.8,95.4L830.8,100.2L829.9,104.5L830.3,106.6L829.0,110.2L827.7,113.7L827.1,115.5L824.8,117.3L823.3,117.3L821.0,115.9L818.9,118.1L819.0,119.1L818.0,118.9L817.4,120.0L817.2,121.0L818.3,123.2L817.4,123.9L817.2,124.5L816.7,125.4L815.3,125.9L814.6,126.7L815.1,128.0L814.9,128.4L816.1,128.9L818.1,130.2L821.8,133.9L823.3,135.9L824.7,139.5L824.4,141.2L822.4,141.8L820.9,143.1L818.7,143.3L817.8,141.6L817.4,139.3L815.0,136.1L816.6,135.6L813.8,132.9L812.4,132.3L812.3,132.9L811.7,133.2L811.4,132.6L810.6,132.3L809.8,131.8L809.9,130.4L810.3,130.1L809.8,129.5L809.8,127.8L809.4,127.3L807.8,127.0L806.3,126.2L803.2,127.1L802.0,128.5L799.7,129.4L800.4,127.9L799.4,126.7L800.4,124.7L798.4,123.0L796.8,124.1L794.9,126.3L794.2,128.3L791.8,128.4L791.2,129.9L793.3,132.0L795.5,132.5L796.1,133.8L798.5,134.8L800.4,132.5L803.1,133.8L804.7,133.8L805.8,135.5L802.6,136.3L802.0,138.0L800.2,139.6L799.7,141.7L803.0,143.4L805.0,146.5L807.5,149.3L810.0,151.7L810.7,154.0L809.4,154.9L810.5,156.6L812.3,157.5L812.7,160.1L812.8,162.5L811.4,162.8L810.4,166.2L809.4,170.3L807.9,174.0L805.0,176.8L802.0,179.5L799.1,179.8L797.8,181.2L796.7,180.2L795.6,181.7L792.2,183.3L789.6,183.8L789.3,187.0L787.9,187.2L786.8,185.0L787.1,183.8L783.5,182.8L782.3,183.3L779.3,185.9L777.6,188.9L777.4,191.0L780.0,194.3L783.0,198.3L785.7,200.3L787.7,202.8L789.6,208.5L789.8,213.9L787.8,216.0L785.0,218.0L783.0,220.5L779.9,223.4L778.8,221.4L779.4,219.3L777.3,217.6L775.0,217.1L773.8,215.5L772.1,212.3L769.6,210.9L767.3,211.0L767.5,208.5L765.1,208.5L765.3,211.9L764.3,216.5L763.6,219.2L764.0,221.4L765.7,221.5L767.0,224.4L767.6,227.0L769.2,228.8L770.9,229.2L772.3,230.8L773.0,231.1L774.6,232.9L775.8,235.0L776.1,237.1L775.8,238.5L776.1,239.5L776.4,241.4L777.3,242.2L778.4,245.0L778.4,246.0L776.5,246.2L773.9,243.9L770.7,241.5L770.4,239.9L768.8,237.8L768.3,235.3L767.3,233.6L767.5,231.3L766.8,230.0L765.7,228.8L765.2,227.3L763.6,225.6L762.2,224.1L761.9,225.9L761.3,224.2L761.5,222.3L762.0,219.3L761.6,217.0L762.2,214.6L761.1,212.8L761.0,209.4L759.8,207.8L758.5,204.1L757.5,200.2L756.1,197.6L754.5,199.2L751.8,201.4L750.3,201.1L748.6,200.4L749.0,196.5L748.0,193.6L745.5,190.1L745.6,188.9L744.0,188.5L741.8,186.0L740.8,184.4L740.4,182.8L739.6,181.3L738.2,179.5L735.8,179.4L736.3,180.7L735.7,182.4L734.5,181.8L734.2,182.3L733.4,182.0L732.4,181.7L732.2,182.8L730.4,182.8L727.3,183.4L727.8,185.8L726.6,187.6L723.2,189.7L720.7,193.4L719.0,195.3L716.6,197.4L716.7,198.8L715.5,199.5L713.2,200.7L712.0,200.8L711.5,203.2L712.4,207.2L712.8,209.8L711.9,212.7L712.2,218.0L710.9,218.1L709.8,220.5L710.7,221.5L708.3,222.4L707.5,224.5L706.5,225.4L703.8,222.5L702.3,218.2L701.1,215.0L700.1,213.6L698.5,210.6L697.5,206.7L696.9,204.8L694.1,200.5L692.4,194.5L691.1,190.6L690.7,186.8L689.8,183.9L686.3,185.7L684.4,185.4L680.5,181.6L681.6,180.5L680.7,179.3L677.3,176.6L675.3,175.8L674.2,173.6L671.9,171.2L667.2,171.8L663.0,171.9L659.4,172.3L654.4,171.4L651.5,170.7L648.5,170.3L646.9,166.4L645.6,165.9L643.7,166.4L641.3,167.9L638.0,166.9L635.1,164.5L632.6,163.6L630.5,160.7L628.1,156.5L626.8,157.0L625.0,156.0L624.2,157.2L622.7,157.1L623.4,158.4L623.2,159.2L624.3,161.5L625.6,164.2L627.0,164.9L627.5,166.0L629.5,167.3L629.7,168.6L629.6,169.6L630.0,170.7L630.9,171.5L631.3,172.6L631.8,173.3L631.4,171.1L631.9,169.4L632.6,169.1L633.5,170.1L633.7,171.9L633.3,173.7L634.0,174.9L634.4,174.8L634.6,175.6L636.6,175.1L638.7,175.2L640.3,175.3L641.9,173.2L643.6,171.2L645.0,169.3L645.6,168.2L645.9,168.5L645.9,169.8L645.6,170.3L646.2,172.8L647.6,174.9L649.2,176.0L651.2,176.5L652.8,177.0L654.1,178.8L655.0,179.8L655.9,180.2L656.0,180.9L655.3,182.8L654.9,183.6L653.9,184.6L653.2,186.8L652.0,186.6L651.5,187.3L651.2,188.9L651.7,191.0L651.5,191.4L650.3,191.4L648.8,192.5L648.6,194.0L648.1,194.7L646.5,194.7L645.5,195.4L645.6,196.7L644.4,197.6L642.9,197.3L641.2,198.3L640.0,198.5L638.2,199.3L637.8,200.7L637.8,201.8L635.2,203.1L631.1,204.5L628.8,206.7L627.7,206.9L626.9,206.7L625.4,208.0L623.7,208.6L621.5,208.7L620.9,208.9L620.3,209.7L619.6,209.9L619.3,210.7L618.0,210.7L617.1,211.1L615.3,210.9L614.5,209.1L614.5,207.4L614.0,206.5L613.4,204.2L612.6,202.9L613.1,202.8L612.7,201.4L613.0,200.8L612.8,199.4L612.4,198.1L611.6,197.2L611.3,195.9L609.9,194.8L608.3,192.2L607.4,189.7L605.5,187.6L604.2,187.0L602.3,184.1L601.9,181.9L601.8,180.1L600.1,176.6L598.8,175.4L597.3,174.8L596.4,173.0L596.4,172.3L595.6,170.7L594.8,170.0L593.6,167.7L591.8,165.2L590.3,163.0L589.1,163.0L589.3,161.3L589.3,160.2L589.5,159L589.4,158.5L588.8,159.8L588.5,162.2L587.9,163.8L587.3,164.3L586.4,163.3L585.1,161.9L582.9,157.5L582.7,157.7L584.0,161.0L585.8,164.2L588.2,169.0L589.2,170.7L590.2,172.5L592.8,175.9L592.3,176.4L592.5,178.5L595.7,181.2L596.2,181.9L597.3,184.9L596.7,185.5L597.3,188.7L598.5,192.4L599.5,193.2L601.0,194.3L602.8,197.9L603.6,200.7L605.2,202.3L608.9,205.2L610.5,206.9L612.0,208.7L612.9,209.8L614.2,210.7L614.9,211.7L614.8,213.0L613.4,213.7L614.5,214.6L615.4,215.1L616.0,216.4L617.2,217.7L618.6,217.7L621.0,216.9L623.9,216.6L626.2,215.6L627.5,215.4L628.4,214.8L629.9,214.7L630.8,214.7L632.0,214.2L633.4,213.9L634.6,212.8L635.6,212.8L635.7,213.7L635.5,215.5L635.6,217.1L635.1,218.2L634.5,221.6L633.3,225.0L631.8,229.0L629.6,233.5L627.4,237.0L624.3,241.2L621.7,243.7L617.7,246.7L615.2,249.1L612.3,252.8L611.7,254.5L611.1,255.2L609.2,256.4L608.5,257.7L607.5,258.0L607.1,260.1L606.2,261.4L605.7,263.4L604.6,264.4L603.3,268.3L603.4,270.0L605.1,271.1L605.2,271.9L604.4,273.8L604.5,274.8L604.3,276.2L605.2,278.2L606.2,281.2L607.1,281.9L607.5,283.3L607.3,286.4L607.5,289.1L607.4,293.9L607.8,295.4L606.9,297.7L605.8,299.8L604,301.7L601.5,302.9L598.5,304.4L595.3,307.7L594.3,308.3L592.3,310.5L591.2,311.2L590.9,313.4L592.0,315.8L592.4,317.6L592.3,318.6L592.8,318.4L592.5,321.4L592.0,322.9L592.6,323.4L592.1,324.7L591.0,325.8L588.7,326.9L585.5,328.6L584.3,329.7L584.4,331.0L585.1,331.2L584.7,332.9L583.9,335.1L583.4,337.7L582.6,339.1L580.8,340.7L580.2,341.1L579.0,342.7L578.2,344.3L576.6,346.6L573.4,349.8L571.5,351.6L569.5,353.0L566.8,354.3L565.5,354.4L565.1,355.3L563.6,354.8L562.3,355.4L559.6,354.8L558.0,355.2L557.0,355.0L554.3,356.3L552.1,356.7L550.5,357.9L549.3,358.0L548.3,356.9L547.5,356.8L546.5,355.4L546.3,355.9L546.1,355.0L546.2,353.2L545.5,351.1L546.3,350.6L546.3,348.2L544.8,345.3L543.7,342.6L543.6,342.6L542.0,338.6L540.1,336.2L539.2,333.9L538.7,330.9L538.2,328.7L537.5,323.9L537.5,320.2L537.2,318.5L536.2,317.2L534.9,314.6L533.6,310.9L533.1,308.9L531.0,305.9L530.9,303.5L530.7,301.6L531.1,298.9L532.0,296.0L532.2,294.7L533.1,291.9L533.8,290.6L535.3,288.6L536.2,287.2L536.5,284.9L536.4,283.2L535.6,282.1L534.9,280.2L534.3,278.3L534.4,277.7L535.2,276.5L534.5,273.5L533.9,271.4L532.6,269.5L532.9,268.8L532.5,267.9L531.8,265.6L529.6,262.3L526.9,259.2L525.1,256.6L523.5,253.4L523.6,252.4L524.2,251.4L524.8,249.2L525.4,246.9L524.9,246.4L525.8,242.9L526.1,240.5L525.1,238.5L523.9,237.9L523.3,236.6L522.7,236.1L522.7,235.3L519.9,236.4L518.9,236.2L517.9,236.9L515.7,236.8L514.3,234.9L513.4,232.7L511.5,230.6L509.5,230.7L507.2,230.7L505.0,231.0L502.8,231.7L498.6,233.5L497.2,234.5L494.8,235.4L492.4,234.6L491.2,234.6L489.3,234.0L487.6,234.0L484.4,234.6L482.6,235.5L479.9,236.6L479.4,236.5L478.7,236.5L476.0,235.1L473.6,232.7L471.3,231.0L469.5,229.0L468.8,228.8L466.9,227.6L465.5,225.9L465.1,224.8L464.7,222.5L463.6,220.7L462.6,219.4L461.9,219.0L461.3,218.4L461.0,217.1L460.6,216.4L459.8,215.9L458.4,214.6L457.3,214.4L456.7,213.5L456.7,213.0L455.9,212.4L455.8,211.7L455.4,209.3L455.7,208.0L454.7,205.5L453.4,204.4L454.6,203.9L455.9,201.7L456.6,200.1L456.4,198.4L457.1,196.9L457.5,194.0L457.3,190.9L457.0,189.4L457.3,187.8L456.7,186.3L455.4,185.0L455.5,183.7L455.7,182.2L456.7,181.4L457.6,179.8L457.5,178.7L458.4,176.5L460.0,174.5L460.8,174.0L461.6,172.2L461.7,170.6L462.7,168.7L464.4,167.5L466.2,164.3L467.5,163.1L470.0,162.8L472.0,160.6L473.3,159.8L475.5,157.2L475.0,153.3L476.0,150.7L476.4,149.0L478.1,146.9L480.7,145.5L482.6,144.2L484.3,141.0L485.1,139.1L487.0,139.1L488.5,140.4L490.9,140.2L493.5,140.9L494.6,140.9L497.0,139.2L499.7,138.7L501.3,137.4L503.7,136.5L507.9,135.9L512.0,135.7L513.3,136.1L515.6,134.9L518.3,134.9L519.3,135.6L521.0,135.4L523.7,134.2L525.5,134.5L525.4,136.1L527.5,135.0L527.7,135.6L526.5,137.1L526.5,138.5L527.4,139.3L527.2,142.0L525.6,143.5L526.1,145.2L527.4,145.3L528.1,146.8L529.1,147.2L532.1,148.3L533.1,148.0L535.3,148.6L538.7,149.9L540,152.7L542.3,153.3L546.0,154.6L548.8,156.2L550.0,155.4L551.1,153.9L550.4,151.5L551.1,150.0L552.9,148.6L554.6,148.2L558.0,148.8L559.0,150.2L559.9,150.2L560.8,150.7L563.3,151.1L564.0,152.1L567.4,152.1L569.9,152.9L572.5,153.8L573.7,154.3L575.6,153.3L576.6,152.4L578.8,152.2L580.7,152.5L581.5,154.1L582.0,153.1L584.1,153.8L586.1,154.0L587.3,153.2L587.9,152.2L587.7,152L588.3,150.5L588.6,148.2L588.8,147.4L588.9,147.4L589.6,144.8L590.6,142.7L590.6,142.5L590.1,140.2L590.6,138.9L589.5,137.5L590.3,136.3L588.9,136.6L586.7,135.9L585.1,137.7L581.4,138.0L579.2,136.3L576.5,136.2L576.0,137.5L574.3,137.9L571.8,136.2L569.1,136.3L567.3,133.2L565.3,131.5L566.3,129.1L564.6,127.6L567.1,124.7L570.9,124.5L571.7,122.2L576.4,122.6L579.1,120.6L581.8,119.7L585.8,119.7L590.4,121.8L594.1,123.0L596.9,122.6L599.0,122.8L601.7,121.2L601.8,119.9L600.9,117.8L599.3,116.7L597.9,116.3L596.9,115.4L593.4,112.8L590.5,111.7L588.1,109.9L589.8,109.4L591.4,106.8L589.9,105.6L593.2,104.4L593.0,103.7L590.9,104.2L589.1,104.5L587.7,105.5L585.4,105.6L583.6,106.7L584.0,108.6L585.3,109.4L587.7,109.2L587.4,110.3L584.8,110.8L581.8,112.6L580.4,111.9L580.7,110.5L577.9,109.6L578.3,109.0L580.5,108.0L579.7,107.3L575.8,106.6L575.5,105.4L573.4,105.8L572.7,107.5L571.1,109.7L571.3,110.5L570.2,111.2L569.4,110.9L569.2,114.6L568.0,115.8L567.4,118.0L568.4,119.8L568.8,121.0L571.0,122.0L570.6,122.7L567.7,122.9L566.8,123.8L564.9,125.5L564.0,124.1L564.0,123.4L562.5,123.3L561.2,123.0L558.3,123.8L560.1,125.6L558.9,126.1L557.5,126.1L556.1,124.5L555.7,125.2L556.4,127.0L557.7,128.5L556.9,129.1L558.4,130.6L559.6,131.5L559.8,133.2L557.5,132.4L558.3,134.0L556.8,134.3L557.9,137.0L556.2,137.1L554.1,135.7L553.0,133.2L552.4,131.2L551.3,129.8L550.0,128.0L549.7,127.1L549.3,126.9L549.2,126.2L547.8,125.2L547.4,123.7L547.5,121.6L547.8,120.7L547.3,120.2L546.8,119.9L546.0,118.9L544.9,118.3L542.6,117.2L541.1,116.1L538.8,115.2L536.7,112.9L537.1,112.7L535.9,111.4L535.8,110.4L534.3,109.9L533.6,111.2L532.8,110.2L532.8,109.1L532.9,109.1L533.4,108.8L531.5,108.4L529.6,109.5L529.8,111.0L529.6,111.8L530.4,113.4L532.8,114.9L534.1,117.5L537.0,119.9L538.9,119.9L539.5,120.6L538.9,121.2L541.1,122.3L543.0,123.3L545.2,124.9L545.5,125.4L545.1,126.5L543.7,125.1L541.5,124.6L540.6,126.6L542.4,127.7L542.2,129.3L541.2,129.5L540.0,132.2L539.0,132.4L538.9,131.5L539.4,129.8L539.9,129.2L538.8,127.4L538.0,125.8L536.9,125.4L536.1,124.1L534.5,123.5L533.4,122.3L531.6,122.1L529.6,120.7L527.3,118.7L525.5,116.9L524.7,113.9L523.5,113.6L521.5,112.5L520.4,113.0L519.0,114.4L518.0,114.6L515.9,116.3L511.0,115.5L507.5,116.5L507.3,118.3L507.4,120.1L505.1,122.2L502.0,122.8L501.8,123.9L500.3,125.6L499.3,128.1L500.3,129.9L498.8,131.2L498.3,133.2L496.4,133.9L494.6,136.3L491.5,136.3L489.1,136.2L487.5,137.3L486.5,138.5L485.3,138.2L484.4,137.2L483.7,135.4L481.4,134.9L480.4,135.7L479.1,135.3L477.8,135.6L478.2,133.2L478.1,131.3L477.0,131.0L476.4,129.9L476.7,127.8L477.7,126.7L477.9,125.5L478.5,123.6L478.5,122.3L478,121.2L477.9,120.2L478.1,118.0L477.2,116.6L480.7,114.4L483.6,115.0L486.9,115.0L489.5,115.5L491.5,115.3L495.4,115.4L496.7,113.6L497.1,107.5L494.7,104.3L493.0,102.8L489.4,101.6L489.2,99.5L492.2,98.8L496.2,99.6L495.5,96.2L497.7,97.5L503.1,95.1L503.8,92.7L505.8,92.1L507.7,91.5L508.9,90.7L510.8,86.3L513.9,85.1L515.8,85.2L516.2,84.6L518.1,84.4L518.6,85.0L520.1,83.6L519.5,82.5L519.3,80.8L518.3,79.2L518.1,76.3L518.5,75.5L519.1,74.6L521.0,74.5L521.8,73.7L523.5,72.9L523.5,74.3L522.9,75.3L523.3,76.1L524.5,76.5L524.0,77.6L523.3,77.3L521.8,79.4L522.5,80.8L522.6,81.9L524.9,82.6L525.0,83.6L527.3,83.1L528.5,82.3L531.1,83.4L532.3,84.4L533.8,83.5L537.2,82.2L540.0,81.2L542.3,81.7L542.5,82.4L544.7,82.4L545.1,81.1L548.2,80.2L547.4,77.7L547.2,75.6L548.1,73.8L550.1,72.8L552.1,74.9L553.9,74.9L554.1,72.7L554.1,71.0L553.3,71.3L551.8,70.3L551.4,68.7L554.0,67.9L556.7,67.5L559.2,68.0L561.4,67.9L563.7,66.3L561.2,65.0L557.2,65.2L553.6,66.2L550.1,66.8L548.6,65.3L546.4,64.4L546.5,61.6L545.1,59.1L545.9,57.5L547.6,55.8L552.0,52.8L553.3,52.3L552.9,51.1L549.8,49.8L546.3,50.6L544.6,52.5L545.1,54.2L542.1,56.4L538.2,58.7L537.1,62.6L538.8,64.6L541.1,66.2L539.4,69.4L537.2,70.0L536.8,74.8L535.7,77.5L533.0,77.3L531.9,79.6L529.3,79.7L528.4,76.9L526.3,73.7L524.3,69.6L522.7,67.9L518.6,71.2L515.6,71.9L512.5,70.4L511.6,67.4L510.8,60.9L512.7,59.1L518.2,56.8L522.2,54.0L525.8,50.2L530.3,45.0L533.5,43.0L538.6,39.8L542.9,38.6L546.2,38.8L548.9,36.6L552.5,36.7L556.0,36.2L562.7,38.1L560.2,38.8L562.8,40.4L564.7,39.5L568.4,41.1L574.1,41.7L582.6,44.7L584.5,46.0L585.1,47.7L583.2,49.1L580.0,49.9L570.2,47.8L568.8,48.2L572.6,50.1L573.8,54.2L576.7,55.0L578.5,55.7L578.5,54.4L576.9,53.2L578.0,52.2L583.5,53.9L585.1,53.2L583.2,51.2L587.4,48.6L589.3,48.7L591.5,49.7L592.2,47.8L590.0,46.2L590.5,44.7L588.5,43.0L594.5,43.9L596.1,45.3L593.6,45.7L594.1,47.2L596.0,48.1L599.0,47.5L599.0,45.8L602.9,44.5L609.2,42.3L610.7,42.4L609.3,44.0L612.0,44.3L613.1,43.4L616.9,43.3L619.5,42.2L622.4,43.8L624.0,42.0L621.2,40.5L621.9,39.7L628.2,40.5L631.4,41.3L640.2,44.3L640.9,42.9L638.1,41.5L637.8,41.0L635.3,40.7L635.3,39.5L633.3,37.4L632.8,36.6L635.3,34.3L635.4,32.0L636.6,31.5L642.1,32.2L643.3,33.6L642.6,35.6L644.2,36.5L645.8,38.3L647.2,41.8L650.3,43.4L650.3,45.2L648.1,49.0L650.7,49.4L651.0,48.4L653.0,47.7L652.9,46.4L654.0,45.2L652.0,43.7L652.1,41.9L649.8,41.7L648.5,40.2L648.7,37.6L645.0,35.5L647.6,33.8L646.1,32.0L647.1,32.0L648.9,33.4L649.5,35.8L651.9,36.3L649.9,34.5L652.7,33.5L656.7,33.3L661.2,34.8L658.1,32.7L656.3,30.0L659.3,29.5L664.1,29.6L668.0,29.3L665.6,28.0L666.7,26.4L668.8,26.3L671.6,25.1L676.4,24.8L676.5,24.1L681.3,23.9L683.3,24.4L686.4,23.1L689.9,23.2L689.5,22.2L690.4,21.2L693.9,20.2L697.8,20.9L695.8,21.5L700.4,21.9L702.0,23.1L703.2,22.5L708.7,22.5L714.1,23.7L716.5,24.6L717.3,25.8L715.8,26.6L712.0,27.9L711.2,28.7L713.9,29.0L717.3,29.6L718.6,29.2L721.1,30.8L721.3,30.1L724.1,29.7L730.7,30.1L732.3,31.3L740.8,31.7L739.0,29.8L743.6,30.2L746.7,30.2L751.1,31.5L753.6,33.1L753.5,34.2L757.9,36.2L762.1,37.2L761.4,34.5L765.7,35.7L768.4,35.0L773.0,35.8L773.7,35.1L777.3,35.4L773.4,33.1L774.8,32.0L794.4,33.6L797.8,35.1L805.2,37.1L812.7,36.6L817.1,37.0L820.0,38.1L822.0,40L825.3,40.7L827.4,40.2L830.9,40.1L835.3,40.7L838.8,40.4L845.1,42.7L846.6,41.9L843.0,40.2L842.4,39.0L849.8,39.8L853.7,39.6L861.1,40.8L865.4,42.0L878.3,52.6ZM134.6,42.0L134.6,42.0L134.6,42.0L137.1,44.0L139.3,46.6L137.1,48.3L137.8,49.0L139.6,47.0L144.7,47.4L145.9,49.9L142.5,51.1L138.8,51.4L135.7,54.0L134.3,54.6L132.4,54.5L131.8,53.6L129.9,52.8L130.8,51.6L129.2,51.2L126.4,51.5L126.4,50.6L128.0,49.6L124.8,50.2L124.2,51.5L121.7,52.6L121.7,52.6L134.6,42.0ZM306.1,41.6L304.2,42.5L302.0,41.7L300.2,42.0L298.2,40.8L300.6,40.0L302.8,38.9L304.4,39.6L305.3,40.1L305.5,40.6ZM858.0,36.2L859.1,37.1L857.1,37.3L855.7,36.4L856.8,35.4L858.0,36.2ZM143.2,35.4L143.2,35.4L143.2,35.4L142.0,36.2L143.2,35.4ZM143.2,35.4L143.6,35.3L145.3,35.3L147.2,36.0L146.5,36.4L143.7,37.0L140.9,37.1ZM317.1,40.6L315.4,43.3L319.4,41.2L320.8,42.9L319.0,44.9L319.9,46.7L323.2,44.7L326.0,42.5L327.8,39.6L330.6,39.8L333.3,40.2L335.3,41.5L334.7,42.8L332.4,44.2L333.0,45.6L332.0,46.9L326.9,48.8L323.8,49.2L322.1,48.4L320.7,49.7L317.4,52.0L316.1,53.2L312.6,55.0L309.5,55.2L307.2,56.4L306.0,58.1L303.3,58.5L299.4,60.7L295.3,63.9L293.2,66.1L291.3,69.4L294.2,69.9L293.8,72.5L293.8,74.7L297.2,74.1L300.7,75.4L302.4,76.5L303.4,77.8L305.8,78.6L307.7,79.9L311.3,80.0L313.7,80.3L312.2,82.8L311.7,85.8L312.0,89.1L314.3,91.9L316.5,90.9L318.9,87.9L319.6,83.2L318.6,81.7L322.8,80.3L326.2,78.3L328.3,76.3L328.9,74.4L328.5,71.9L326.7,69.8L330.7,66.8L330.9,64.3L332.2,59.9L334.0,59.3L337.3,60.0L339.4,60.3L341.5,59.6L343.1,60.5L345.1,62.1L345.2,63.2L349.0,63.4L348.0,65.8L347.3,69.4L349.1,69.8L350.1,71.5L353.9,69.9L357.2,66.8L359.1,65.5L359.9,68.0L361.4,71.6L362.7,75.0L361.2,76.9L363.6,78.5L365.1,80.1L368.5,80.9L369.7,81.8L369.9,84.3L371.5,84.7L372.1,85.8L371.4,89.1L369.4,90.2L367.4,91.3L363.3,92.3L359.7,94.8L355.6,95.3L350.8,94.6L347.3,94.6L344.8,94.8L342.2,97.0L338.8,98.3L334.1,102.3L330.6,105.1L332.7,104.6L337.7,100.6L343.5,98.1L347.1,97.8L348.7,99.3L345.9,101.3L345.7,104.6L345.9,106.8L348.6,108.4L352.7,107.9L355.9,104.5L355.5,106.7L356.8,107.8L353.3,109.8L347.6,111.6L344.8,112.9L341.6,115.1L339.8,114.8L340.4,112.2L345.2,109.7L341.4,109.8L338.6,110.2L338.7,111.2L335.8,112.7L333.0,113.7L330.2,114.6L328.2,116.6L327.8,117.1L327.3,118.8L327.7,120.4L328.7,120.5L328.8,119.4L329.3,120.0L328.9,120.9L327.1,121.4L325.9,121.4L324.0,121.9L322.9,122.0L321.4,122.2L319.1,123.1L322.9,122.5L323.5,123.1L319.8,124.0L318.2,124.0L318.4,123.6L317.4,124.5L318.1,124.6L317.0,126.9L314.6,129.2L314.6,128.4L314.1,128.3L313.5,127.5L313.6,129.2L314.0,129.7L313.8,130.9L312.7,132.1L310.7,134.6L310.5,134.4L311.8,132.3L310.8,131.2L311.2,128.6L310.4,129.9L310.4,131.9L308.9,131.4L310.3,132.4L309.7,135.3L310.4,135.6L310.4,136.6L310.0,139.7L307.9,142.0L305.1,143.0L303.0,144.8L301.7,145.0L300.2,146.1L299.6,147.2L296.3,149.2L294.6,150.7L293.0,152.5L292.1,154.7L292.1,156.9L292.4,159.5L293.2,161.8L292.9,163.1L293.5,166.7L293.0,168.8L292.7,170.0L291.7,171.9L290.9,172.3L289.7,171.9L289.5,170.6L288.6,169.9L287.7,167.2L287.0,164.8L286.8,163.6L287.8,161.5L287.4,159.8L285.9,157.2L285.0,156.7L282.1,158.1L281.7,158.0L280.8,156.5L279.4,155.8L276.4,156.1L274.2,155.8L272.2,156.0L271.0,156.4L271.3,157.3L271.0,158.6L271.4,159.2L270.8,159.6L270.0,159.2L268.9,159.7L267.0,159.6L265.5,158.0L263.2,158.4L261.5,157.7L259.8,157.9L257.5,158.6L254.6,160.9L251.8,162.3L250.0,163.8L249.1,165.2L248.7,167.3L248.5,168.8L248.7,169.9L248.7,169.9L248.7,169.9L247.2,172.6L246.3,174.8L245.3,179.0L244.8,180.5L244.9,182.2L245.5,183.7L245.6,186.1L247.0,188.4L247.3,190.2L248.1,191.7L250.8,192.6L251.7,193.9L254.1,193.0L256.1,192.7L258.2,192.1L259.9,191.6L261.8,190.3L262.7,188.5L263.3,185.9L263.8,185.0L265.7,184.2L268.6,183.5L270.9,183.6L272.5,183.3L273.1,184.0L272.8,185.5L271.1,187.3L270.2,189.2L270.6,189.7L270.0,191.1L269.0,193.5L268.5,192.7L267.9,192.8L267.9,193.2L268.4,193.2L268.2,194.1L267.6,195.4L267.8,195.9L267.4,197L267.5,197.3L267.0,198.9L266.4,199.7L265.9,199.8L265.3,200.9L266.1,201.4L266.3,201.0L267.1,201.4L267.3,201.5L268.0,200.9L268.7,200.9L268.9,201.1L269.4,201.0L270.6,201.3L271.8,201.2L272.7,200.8L273.0,200.5L273.9,200.7L274.5,200.9L275.2,200.8L275.7,200.5L276.9,201.0L277.3,201.0L278.0,201.6L278.7,202.3L279.6,202.8L280.2,203.6L280.0,203.9L279.8,204.6L279.9,205.7L279.2,206.8L278.8,208.0L278.6,209.4L278.7,210.2L278.6,211.6L278.2,211.9L277.9,213.2L278.0,214.0L277.4,214.8L277.4,215.7L277.8,216.2L278.3,217.9L279.3,219.1L280.5,220.4L281.3,221.5L281.2,222.2L282.3,222.3L282.6,222.1L283.3,222.8L284.6,222.6L285.8,221.8L287.4,221.2L288.4,220.3L289.8,220.5L289.7,220.8L291.2,220.9L292.3,221.4L293.2,222.3L294.1,223.2L295.5,223.3L297.6,221.1L298.7,220.8L298.8,219.8L299.4,217.2L301.1,215.7L302.7,215.7L303.0,215.0L305.1,215.3L307.2,213.7L308.3,213.0L309.7,211.5L310.6,211.7L311.3,212.6L310.7,213.6L310.6,214.3L309.0,214.7L309.8,216.1L309.6,217.7L308.4,219.5L309.2,222.0L310.4,221.8L311.1,219.5L310.3,218.4L310.4,216.1L313.7,214.8L313.5,213.4L314.5,212.4L315.3,214.6L317.1,214.6L318.8,216.3L318.8,217.4L321.2,217.4L324.0,217.1L325.5,218.5L327.5,218.8L329.0,217.9L329.1,217.1L332.4,216.9L335.6,216.9L333.3,217.8L334.1,219.3L336.2,219.5L338.2,221.0L338.5,223.5L339.9,223.4L340.9,224.1L342.6,225.3L344.2,227.3L344.2,228.9L345.2,229.0L346.6,230.5L347.6,231.5L350.8,232.2L351.1,231.6L353.3,231.4L356.1,232.2L357.0,232.6L358.9,233.3L361.7,235.9L362.1,237.2L363.0,237.0L363.7,238.7L365.1,244.1L366.5,244.6L366.6,246.8L364.6,249.3L365.4,250.2L370.1,250.7L370.2,253.8L372.3,251.8L375.6,252.9L380.1,254.8L381.4,256.6L381.0,258.3L384.1,257.4L389.3,259.0L393.3,258.9L397.2,261.4L400.7,264.9L402.8,265.8L405.0,265.9L406.0,266.9L407.0,270.8L407.5,272.7L406.5,277.8L405.2,279.8L401.6,284.1L400.0,287.6L398.2,290.3L397.5,290.4L396.9,292.7L397.3,298.5L396.9,303.2L396.7,305.3L395.9,306.5L395.7,310.7L393.3,314.7L393.1,317.9L391.1,319.3L390.6,321.1L387.8,321.1L383.8,322.3L382.1,323.7L379.3,324.6L376.4,327.1L374.6,330.2L374.4,332.5L375.0,334.2L374.9,337.4L374.5,338.9L372.9,340.6L370.8,346.1L368.9,348.5L367.3,350.0L366.6,353.0L365.2,354.7L364.4,356.7L361.9,358.4L359.9,357.8L358.6,358.1L356.1,356.8L354.4,356.9L352.5,355.2L352.6,356.8L356.3,359.4L356.3,361.6L358.1,362.9L358.3,364.5L356.6,368.4L353.3,370.1L348.4,370.7L345.6,370.4L346.6,372.3L346.5,374.6L347.3,376.1L346.1,377.2L343.7,377.6L341.1,376.5L340.3,377.3L341.4,380.4L343.3,381.3L344.4,380.3L345.5,381.9L343.5,382.9L342.0,384.8L342.4,387.9L342.3,389.5L340.0,389.5L338.6,391.1L338.5,393.3L341.5,395.6L343.9,396.2L343.9,398.9L341.6,400.6L341.2,404.1L339.4,405.3L338.9,406.7L340.7,409.8L342.8,411.5L341.8,411.3L339.7,411.3L338.8,412.0L337.1,413.1L337.8,415.9L336.8,415.9L333.9,415.0L330.5,412.9L327.0,411.2L325.6,409.3L325.6,407.6L323.8,405.6L321.7,400.5L321.7,397.6L323.5,395.3L319.6,394.4L321.0,391.7L320.3,386.6L323.3,387.7L322.8,381.4L320.9,380.6L321.2,384.4L319.6,384.0L319.1,379.6L318.4,373.9L319.0,371.8L317.6,368.7L316.5,365.2L317.6,365.1L317.9,360.1L318.6,355.2L318.8,350.5L317.3,345.9L317.6,343.3L316.6,339.5L317.5,335.7L317.0,329.6L316.9,323.2L316.8,316.2L316.0,311.1L315.0,306.8L312.2,305.0L311.8,303.7L306.3,300.6L301.2,297.2L299.0,295.3L297.7,292.7L298.1,291.9L295.5,287.8L292.5,282.1L289.6,275.9L288.4,274.5L287.5,272.2L285.3,270.2L283.4,269.0L284.2,267.6L282.8,264.6L283.5,262.5L285.6,260.5L287.0,258.2L286.4,256.9L285.4,258.3L283.8,256.9L284.3,256.1L283.8,253.3L284.8,252.8L285.3,250.9L286.3,248.9L286.1,247.6L287.6,247.0L289.4,245.7L289.0,244.8L290.0,244.5L289.9,243.0L290.6,241.9L291.9,241.7L293.1,239.7L294.1,238.1L293.2,237.4L293.7,235.6L293.2,232.7L293.8,231.9L293.5,229.3L292.5,227.7L291.6,226.8L291.1,225.1L291.8,224.3L291.2,224.1L290.7,223.1L289.5,222.2L288.3,222.4L287.7,223.5L286.6,224.2L286.0,224.3L285.7,225.0L286.9,226.7L286.1,227.1L285.7,227.5L284.5,227.7L284.1,225.8L283.7,226.4L282.9,226.2L282.4,224.9L281.3,224.7L280.6,224.4L279.5,224.4L279.4,225.0L279.1,224.6L277.7,223.9L277.2,223.2L277.5,222.7L277.5,222.0L276.8,221.3L275.8,220.7L274.9,220.3L274.8,219.4L274.1,218.8L274.2,219.7L273.6,220.5L273.1,219.6L272.2,219.3L271.9,218.7L272.0,217.7L272.4,216.8L271.7,216.3L272.4,215.7L271.5,214.7L270.4,213.5L269.9,212.5L268.9,211.5L267.6,210.1L268.0,209.6L268.4,210.1L268.6,209.9L268.2,208.9L267.5,208.6L267.1,209.3L265.6,209.3L264.6,209.0L263.6,208.4L262.2,208.2L261.5,207.5L260.2,207.0L258.5,206.9L257.4,206.3L256.1,205.0L253.5,201.7L252.2,200.7L250.2,199.9L248.7,200.1L246.4,201.3L245.0,201.6L243.3,200.8L241.4,200.2L239.1,198.8L237.2,198.3L234.4,196.9L232.4,195.4L231.9,194.6L230.4,194.4L227.9,193.4L227.0,192.0L224.5,190.2L223.5,188.3L223.1,186.7L224.0,186.4L223.9,185.6L224.7,184.8L224.9,183.7L224.3,182.3L224.3,181.0L223.7,179.5L222.0,176.4L219.9,174.0L219.1,172.0L217.2,170.8L216.9,170.0L217.7,168.1L216.6,167.3L215.4,165.8L215.3,163.7L214.0,163.4L212.9,161.8L212.2,160.2L212.3,159.3L211.6,156.9L211.4,154.5L211.8,153.4L210.3,152.1L209.4,152.3L208.2,151.4L207.4,152.7L207.4,154.2L206.9,156.5L207.5,157.8L208.8,159.9L209.0,160.6L209.3,160.9L209.4,161.9L209.8,161.9L209.8,163.9L210.4,164.7L210.7,165.8L211.9,167.4L212.0,170.3L212.5,171.6L212.9,173.1L212.7,174.7L213.9,174.8L214.6,176.3L215.3,177.6L215.1,178.2L213.8,179.3L213.3,179.3L213.0,177.4L211.7,175.7L210.1,174.2L209.0,173.4L209.6,171.1L209.6,169.4L208.6,168.4L207.2,167.1L206.8,167.5L206.3,166.6L204.9,165.9L203.9,164.1L204.1,163.9L205.1,164.0L206.4,162.9L206.9,161.5L205.5,159.2L204.2,158.4L203.9,156.4L203.5,154.4L203.1,151.9L203.0,149.1L203.1,147.5L202.0,145.7L201.0,145.4L201.0,144.5L199.6,144.3L199.0,143.5L196.8,143.2L196.3,142.7L196.6,141.0L195.3,137.8L194.9,133.5L195.3,132.8L194.6,131.8L193.8,129.2L194.5,126.7L193.9,125.0L195.6,122.4L196.7,119.8L197.0,117.4L199.4,114.6L202.7,109.0L204.4,104.9L205.0,102.4L205.1,101.0L205.7,100.4L208.6,101.4L208.3,104.2L209.3,103.4L210.3,101.0L210.8,98.5L210.5,98.5L207.6,95.5L206.7,94.3L203.2,93.0L203.6,90.4L205.0,88.6L202.9,87.3L204.0,84.9L202.7,82.8L203.7,81.3L203.2,80.2L201.8,79.3L203.0,76.8L201.8,74.4L202.6,71.7L200.6,71.5L197.2,71.5L195.2,70.7L193.0,67.7L191.3,67.2L188.4,66.2L185.1,66.4L181.9,65.1L180.4,63.9L177.5,64.5L176.2,66.5L174.8,66.6L171.8,67.2L169.0,68.2L166.0,68.8L167.2,67.1L170.7,64.4L173.8,63.5L173.8,62.8L169.6,64.4L166.4,66.2L161.5,68.2L161.9,69.6L158.0,71.7L154.5,72.9L151.5,73.7L149.9,75.0L145.1,76.5L143.2,77.9L139.5,79.1L138.2,78.9L135.4,79.7L132.2,80.7L129.5,81.6L124.9,82.5L125.0,82.0L128.6,80.6L131.6,79.7L135.4,78.1L138.5,77.8L140.6,76.6L145.2,74.9L146.2,74.3L148.8,73.3L151.1,71.1L153.7,69.5L150.4,70.3L150.1,69.8L148.0,70.9L147.9,69.4L146.3,70.4L146.8,69.0L143.5,70.2L142.2,70.2L143.6,68.5L145.0,67.4L144.5,66.4L141.1,67.0L140.6,65.7L139.7,65.0L141.3,63.4L140.8,62.2L143.3,60.6L146.6,59.1L148.8,57.6L150.8,57.4L151.8,57.9L154.9,56.5L156.2,56.8L158.7,55.9L159.5,54.7L158.9,54.2L161.5,53.1L160.2,53.2L157.3,53.8L156.1,54.4L155.0,53.8L151.7,54.1L149.3,53.4L149.6,52.3L148.7,50.8L152.9,49.6L159.0,48.3L160.7,48.3L158.9,49.7L163.4,49.6L163.6,47.9L162.1,46.9L162.2,45.5L161.5,44.4L159.6,43.6L162.4,42.2L166.1,42.1L170.0,40.9L171.9,39.6L175.4,38.4L177.7,38.1L182.9,37.0L184.5,37.1L189.1,35.8L191.5,36.3L191.7,37.5L193.1,37.0L196.3,37.1L195.5,37.7L198.1,38.2L200.4,37.9L203.8,38.7L207.4,39.0L208.6,39.3L211.7,38.9L213.9,39.7L215.8,40.0L218.9,40.7L220.9,41.9L222.7,42.2L225.6,41.1L228.8,40.2L231.5,40.6L235.6,39.4L239.5,38.8L239.9,39.9L241.9,39.2L243.5,38.0L244.6,38.3L245.9,40.6L250.2,38.9L248.7,40.8L251.5,40.4L253.0,39.7L255.3,39.8L257.4,40.9L261.4,41.9L263.8,42.3L265.9,42.1L267.6,43.5L263.7,44.8L267.0,45.4L272.7,45.0L274.8,44.6L275.8,46.2L279.1,44.8L277.8,43.7L279.8,42.8L282.4,42.7L284.2,42.4L285.4,43.0L286.4,44.5L288.8,44.3L291.6,45.5L295.1,45.0L298.0,45.1L298.9,43.5L301.0,43.0L303.6,43.9L301.9,46.4L304.6,44.3L306.2,44.4L308.9,41.7L307.8,40.1L306.2,39.0L308.3,36.2L312.0,34.3L314.3,34.7L315.5,35.9L316.3,38.8L313.7,40.1ZM277.2,31.3L275.2,32.5L280.2,31.7L281.9,33.0L285.2,31.7L286.3,32.5L285.8,35.0L287.7,34.0L288.4,31.4L290.4,31.0L292.0,31.4L293.4,32.4L292.7,34.9L291.9,36.7L294.3,38.0L297,39.2L295.9,40.4L292.5,40.6L293.0,41.6L291.7,42.5L288.3,42.1L285.3,41.4L282.9,41.6L278.4,42.5L272.0,42.9L269.1,43.1L269.0,41.9L266.8,41.2L264.7,41.4L264.0,39.4L265.5,39.1L269.0,38.7L271.7,38.8L274.7,38.3L271.4,37.7L266.9,37.9L264.1,37.9L263.9,36.9L269.4,35.9L266.3,35.9L263.4,35.3L266.8,33.3L269.0,32.3L275.7,30.8ZM296.7,30.5L293.6,32.2L292.0,30.4L293.0,30.1L295.7,30.0ZM351.0,31.3L350.8,32.0L348.7,32.0L346.7,31.9L344.3,32.3L343.8,32.1L342.5,30.8L343.2,29.9L344.2,29.7L348.5,30.0ZM331.1,31.2L331.6,32.8L334.8,30.7L340.4,29.7L342.1,32.3L340.8,34.0L345.1,33.2L347.6,32.2L351.2,33.5L353.2,34.7L352.9,35.8L356.9,35.3L358.1,36.9L362.4,37.9L363.6,39.0L364.3,41.4L360.0,42.6L364.0,44.3L367,44.9L368.9,47.4L372.1,47.6L370.6,49.4L365.7,52.6L363.6,51.4L361.4,48.8L358.6,49.2L357.6,50.7L359.1,52.3L361.5,53.5L362.0,54.3L362.3,57.0L360.7,58.9L358.3,58.2L353.9,56.0L355.9,58.4L357.5,60.0L357.4,61L352.1,59.9L348.2,58.3L346.2,56.9L347.3,56.2L344.8,54.8L342.3,53.4L342.0,54.2L335.6,54.7L334.3,53.7L336.7,51.7L340.7,51.7L345.2,51.3L344.9,50.4L346.3,49.0L350.3,46.4L350.3,45.2L350.0,44.3L347.5,43.1L343.9,42.2L345.5,41.5L344.3,39.9L342.6,39.7L341.5,38.8L340.0,39.6L336.1,39.9L329.1,39.4L325.4,38.6L322.4,38.2L321.3,37.3L324.1,36.1L321.3,36.1L322.4,33.5L325.5,31.3L328.2,30.3L333.7,29.6ZM305.6,29.5L307.5,30.0L311.2,29.7L311.1,30.4L308.4,31.6L310.6,32.7L308.5,35.0L304.6,36.0L302.8,35.8L302.2,34.8L298.8,32.8L299.4,32.0L303.2,32.3L302.3,30.7ZM780.0,31.1L777.0,31.1L772.7,30.8L772.3,30.7L773.0,29.7L775.2,29.5L779,30.4ZM317.5,32.2L314.0,34.1L311.9,34.0L312.3,31.8L313.2,30.5L315.0,29.4L317.5,28.8L321.4,28.9L324.7,29.5L320.2,31.7ZM261.0,35.7L254.6,36.9L254.5,35.8L251.2,34.5L252.7,33.6L256.2,31.5L259.5,29.9L259.1,28.4L266.0,28.0L268.3,28.5L273.1,28.6L274.3,29.4L275.4,30.4L272.4,31.0L266.0,32.8L261.9,34.6ZM788.3,26.4L787.3,27.4L783.9,27.2L779.2,26.2L778.7,25.4L782.7,25.8ZM320.8,26.7L319.0,27.6L316.3,27.5L314.5,26.8L316.4,25.7L319.7,25.1L320.7,25.9ZM776.1,25.3L776.7,27.1L769.6,27.0L767.1,27.6L761.5,26.0L760.6,24.3L762.5,23.9L767.7,24.0ZM314.9,22.5L315.4,23.6L314.4,24.8L312.1,26.6L308.7,26.9L307.0,26.5L308.2,25.1L305.0,25.3L306.5,23.4L308.4,23.5L312.0,22.7L314.5,22.8ZM295.5,23.7L295.5,24.6L297.5,24.2L299.4,24.3L298.7,25.5L296.5,26.6L289.7,27.0L283.9,28.1L280.9,28.1L281.4,27.3L286.4,26.2L277.5,26.5L275.2,26.1L280.1,23.7L282.6,23.1L287.1,23.9L289.1,25.3L292.3,25.5L291.7,23.2L294.3,22.3L295.9,22.6ZM614.9,37.4L613.8,37.6L607.2,37.3L606.2,36.2L602.3,35.5L601.5,34.1L603.3,33.5L602.7,32.2L605.7,30.0L603.8,29.7L607.4,27.6L606.4,26.4L610.1,25.2L615.5,23.6L621.6,23.2L624.3,22.3L627.8,22.0L629.6,22.9L628.8,23.7L622.8,24.8L617.6,26.0L612.7,28.3L611.0,30.8L609.0,33.2L610.2,35.3ZM322.9,21.6L324.3,22.4L328.0,22.4L329.0,23.1L327.8,24.0L329.6,24.6L330.4,25.2L332.9,25.3L335.5,25.5L338.9,24.9L342.9,24.7L345.9,24.9L347.3,25.8L347.1,26.8L345.4,27.5L342.2,28.0L340.0,27.7L334.2,28.1L330.2,28.1L327.3,27.8L322.8,27.0L323.1,25.7L323.9,24.5L322.8,23.4L319.1,23.2L317.6,22.4L319.1,21.4ZM283.9,20.3L281.8,22.1L279.5,22.9L277.6,23.1L273.1,24.1L269.6,24.5L267.6,23.9L272.7,22.1L278.2,20.6L281.0,20.7ZM325.3,20.6L324.4,20.7L321.0,20.5L321.1,19.9L324.8,19.9L325.7,20.3ZM295.3,20.2L291.1,20.9L289.1,20.1L291.4,19.4L294.4,19.1L296.6,19.5ZM545.9,19.8L541.9,20.8L538.5,20.2L539.7,19.6L538.4,18.9L542.1,18.4L543.1,19.3ZM298.4,18.1L295.7,18.6L292.6,18.6L293.0,18.2L295.6,17.6L296.5,17.7ZM322.7,19.4L319.5,19.8L318.5,19.3L318.5,18.4L319.3,17.5L321.6,17.6L322.5,17.7L323.9,18.5ZM315.4,18.7L315.2,19.7L312.5,19.4L310.2,18.7L306.1,18.6L308.6,17.9L306.9,17.4L307.7,16.5L311.0,16.8L315.1,17.7ZM693.9,18.8L684.3,19.7L684.7,16.7L686.0,16.4L687.5,16.6L693.5,17.9ZM533.1,15.7L539.4,17.3L535.0,18.2L534.3,19.9L532.7,20.3L532.1,22.3L529.9,22.4L525.7,20.9L527.2,20.1L524.4,19.4L520.6,17.5L519.0,15.8L523.8,15.0L524.9,15.7L527.5,15.7L528.0,15.0L530.7,14.9ZM545.7,14.1L549.5,14.9L547.1,16.1L541.9,16.3L536.5,16.0L536.0,15.3L533.4,15.3L531.2,14.3L536.7,13.7L539.4,14.2L541.0,13.6ZM591.7,13.8L589.5,14.1L587.9,14.3L587.9,14.6L586.0,15.0L583.7,14.5L584.4,13.8L580.4,13.7L583.7,13.3L586.4,13.3L587.1,13.9L587.8,13.4L589.3,13.0L592.2,13.5ZM683.1,17.5L679.4,17.8L673.7,17.1L669.8,16.3L666.9,14.7L664.0,14.3L667.1,12.8L670.4,12.3L675.1,13.4L681.5,15.5ZM342.1,15.7L343.7,16.5L340.6,17.1L335.7,18.8L332.3,19.0L328.7,18.7L327.6,17.8L328.4,17.0L330.4,16.4L327.1,16.4L325.8,15.6L325.7,14.7L327.9,13.7L329.9,13.1L331.9,12.9L331.6,12.4L335.9,12.3L337.0,13.4L339.5,13.9L342.0,14.3ZM381.7,8.7L386.2,8.8L389.6,9.1L392.4,9.6L391.8,10.1L386.8,11.0L382.2,11.4L380.3,11.8L384.1,11.8L378.9,13.1L375.5,13.7L371.1,15.4L367.1,15.8L365.6,16.3L359.9,16.5L362.2,16.8L360.6,17.2L361.3,18.3L358.9,19.1L355.6,19.7L354.1,20.6L351.0,21.3L350.8,21.9L354.1,21.8L353.7,22.4L347.7,23.8L343.3,23.1L337.4,23.5L334.9,23.2L331.4,23.1L332.1,21.9L335.9,21.4L336.4,19.7L337.7,19.6L341.8,20.6L340.5,19.1L337.8,18.6L340.1,17.8L343.8,17.2L345.0,16.4L343.2,15.6L343.5,14.5L348.3,14.6L349.5,14.8L353.1,14.0L349.2,13.8L342.8,13.9L340.4,13.2L339.8,12.3L338.4,11.7L338.8,11.0L341.9,10.6L344.0,10.6L347.8,10.3L351.3,9.5L353.3,9.6L354.5,10.2L357.1,9.1L359.7,8.8L363.1,8.6L368.4,8.5L369.1,8.7L374.5,8.4L378.1,8.5ZM453.5,7.9L463.8,9.4L460.3,10.1L453.6,10.2L444.1,10.4L444.9,10.8L451.2,10.6L456.2,11.2L459.8,10.6L461.1,11.3L458.8,12.5L463.5,11.8L472.3,11.0L477.5,11.4L478.3,12.3L470.8,13.8L469.7,14.2L463.9,14.6L468.0,14.7L465.6,16.3L463.8,17.8L463.4,20.3L465.4,21.9L462.4,22.0L459.2,22.7L462.5,24.0L462.6,26.0L460.5,26.3L462.6,28.4L458.3,28.5L460.4,29.6L459.6,30.4L456.8,30.8L454.1,30.8L456.2,32.5L456.1,33.7L452.4,32.6L451.2,33.3L453.8,33.9L456.1,35.5L456.5,37.6L452.9,38.1L451.5,37.1L449.3,35.6L449.7,37.3L447.1,38.7L452.4,38.8L455.1,38.9L449.3,41.2L443.4,43.3L437.3,44.2L435.0,44.2L432.7,45.2L429.1,48.0L424.2,49.9L422.8,50.0L419.8,50.7L416.7,51.3L414.4,53.0L413.9,54.9L412.3,56.7L408.3,58.9L408.6,61.1L407.0,63.4L405.2,66.1L402.1,66.3L399.5,64.0L395.1,64.0L393.5,62.5L392.9,59.7L390.2,56.3L389.8,54.5L390.3,52.1L388.3,49.6L389.7,47.6L388.7,46.7L391.9,43.6L395.3,42.6L396.5,41.5L397.6,39.5L395.0,40.4L393.8,40.8L391.8,41.1L389.6,40.3L390.2,38.5L391.5,37.2L393.4,37.1L397.2,37.8L394.4,36.2L393.0,35.3L390.9,35.6L389.5,35.0L392.7,32.6L391.9,31.7L391.1,30.0L389.9,27.3L387.9,26.4L388.5,25.4L384.1,24.0L380.2,23.8L375.1,23.9L370.3,24.1L368.6,23.3L366.3,21.8L371.6,21.1L375.5,20.9L367.9,20.3L364.4,19.4L365.2,18.5L372.9,17.4L380.4,16.3L381.6,15.5L377.3,14.7L379.5,13.9L386.8,12.4L389.6,12.2L389.6,11.3L394.1,10.7L399.8,10.4L405.2,10.4L406.6,11.0L412.0,9.9L415.7,10.7L418.1,10.8L421.4,11.5L417.8,10.4L418.6,9.6L425.2,8.4L431.2,8.5L433.8,7.8L439.9,7.7Z"/>
<path class="map-arc" id="mapArc0" pathLength="1" d="M464.8,223.8L496.9,197.2L531.0,172.9L549.1,162.1L568.1,152.5L587.9,144.5L608.6,138.2L630.2,133.9L652.6,131.7L675.6,131.7L698.9,134.0L722.3,138.4L745.5,144.8L768.2,152.9L790.3,162.5"/>
<path class="map-arc" id="mapArc1" pathLength="1" d="M790.3,162.5L764.7,139.5L735.4,118.4L702.4,100.1L684.5,92.5L665.8,86.1L646.4,81.1L626.5,77.7L606.5,76.0L586.7,76.1L567.6,78.0L549.4,81.6L532.4,86.8L516.5,93.3"/>
<path class="map-arc" id="mapArc2" pathLength="1" d="M516.5,93.3L513.1,89.6"/>
<path class="map-arc" id="mapArc3" pathLength="1" d="M513.1,89.6L511.3,88.5"/>
<g class="map-stop" id="mapStop0" data-stop="freetown">
<circle class="map-stop-halo" cx="464.8" cy="223.8" r="10"/>
<circle class="map-stop-dot" cx="464.8" cy="223.8" r="3.2"/>
<text class="map-stop-label" x="464.8" y="247.8" text-anchor="middle">Freetown</text>
</g>
<g class="map-stop" id="mapStop1" data-stop="changsha">
<circle class="map-stop-halo" cx="790.3" cy="162.5" r="10"/>
<circle class="map-stop-dot" cx="790.3" cy="162.5" r="3.2"/>
<text class="map-stop-label" x="804.3" y="167.5" text-anchor="start">Changsha</text>
</g>
<g class="map-stop" id="mapStop2" data-stop="bonn">
<circle class="map-stop-halo" cx="516.5" cy="93.3" r="10"/>
<circle class="map-stop-dot" cx="516.5" cy="93.3" r="3.2"/>
<text class="map-stop-label" x="526.5" y="105.3" text-anchor="start">Bonn</text>
</g>
<g class="map-stop" id="mapStop3" data-stop="wageningen">
<circle class="map-stop-halo" cx="513.1" cy="89.6" r="10"/>
<circle class="map-stop-dot" cx="513.1" cy="89.6" r="3.2"/>
<text class="map-stop-label" x="523.1" y="93.6" text-anchor="start">Wageningen</text>
</g>
<g class="map-stop" id="mapStop4" data-stop="amsterdam">
<circle class="map-stop-halo" cx="511.3" cy="88.5" r="10"/>
<circle class="map-stop-dot" cx="511.3" cy="88.5" r="3.2"/>
<text class="map-stop-label" x="501.3" y="82.5" text-anchor="end">Amsterdam</text>
</g>
</g>
</svg>
